<svg width="828" height="772" viewBox="0 0 828 772" fill="none" xmlns="http://www.w3.org/2000/svg">
<path d="M30.38 126.34L24 104.24H27.42L32 122.98L36.7 104.24H40L33.66 126.34H30.38Z" fill="#232F3E"/>
<path d="M45.72 117.76V126.34H42.72V104.34H49.18C50.2749 104.306 51.3552 104.598 52.2843 105.178C53.2134 105.759 53.9497 106.601 54.4 107.6C54.8975 108.699 55.1435 109.894 55.12 111.1C55.2042 112.881 54.6192 114.629 53.48 116C52.9453 116.609 52.2823 117.091 51.5388 117.413C50.7952 117.734 49.9896 117.887 49.18 117.86L45.72 117.76ZM45.72 115.3H48.86C49.314 115.319 49.7655 115.225 50.174 115.026C50.5825 114.827 50.935 114.529 51.2 114.16C51.8011 113.221 52.0818 112.112 52 111C52.0699 109.874 51.7678 108.757 51.14 107.82C50.8704 107.457 50.5164 107.165 50.1086 106.97C49.7009 106.775 49.2517 106.682 48.8 106.7H45.72V115.3Z" fill="#232F3E"/>
<path d="M71.44 125.66C70.0334 126.323 68.4948 126.658 66.94 126.64C61.2466 126.64 58.4 122.88 58.4 115.36C58.1928 112.369 58.9651 109.393 60.6 106.88C61.3649 105.915 62.3518 105.149 63.4766 104.647C64.6014 104.146 65.8308 103.924 67.06 104C68.476 104.017 69.8753 104.309 71.18 104.86V107.38C69.9661 106.976 68.699 106.753 67.42 106.72C66.5801 106.654 65.7373 106.803 64.971 107.153C64.2047 107.503 63.5401 108.042 63.04 108.72C61.9608 110.635 61.4736 112.828 61.64 115.02V115.78C61.4917 117.938 61.9562 120.094 62.98 122C63.4694 122.674 64.1233 123.212 64.8796 123.562C65.6358 123.913 66.4691 124.063 67.3 124C68.7092 123.917 70.1013 123.648 71.44 123.2V125.66Z" fill="#232F3E"/>
<path d="M71.6 133.4H21.2C12.56 133.4 5.50001 127.78 5.04001 119.4C5.04001 119.02 5.04001 118.66 5.04001 118.26C5.04001 108.6 11.58 104.26 17.4 102.88C17.2957 101.964 17.2423 101.042 17.24 100.12C17.3935 95.8164 18.7388 91.64 21.1259 88.0558C23.5129 84.4717 26.8482 81.6205 30.76 79.82C35.0407 77.9854 39.7739 77.4793 44.3458 78.3673C48.9177 79.2552 53.1173 81.4964 56.4 84.8C59.2326 87.6113 61.3872 91.0313 62.7 94.8V94.8C68 88 79.62 90 80.38 102.64C85.88 103.74 95 107.12 95 118.44C95 131.5 85.16 133.4 78.8 133.4H71.6Z" stroke="#232F3E" stroke-width="2" stroke-linejoin="round"/>
<rect x="0.5" y="139.5" width="827" height="632" rx="26.5" stroke="black" stroke-opacity="0.5"/>
<rect x="21.5" y="182.5" width="470" height="567" rx="26.5" stroke="black" stroke-opacity="0.5" stroke-dasharray="5 5"/>
<rect x="509.5" y="182.5" width="154" height="567" rx="26.5" stroke="black" stroke-opacity="0.5" stroke-dasharray="5 5"/>
<path d="M217.8 78.78H207.8V74.78H217.8C227.36 74.78 232 70.54 232 61.84C232 54.4 227.62 49.74 218.98 47.98C218.548 47.8926 218.157 47.6648 217.867 47.332C217.578 46.9992 217.407 46.5802 217.38 46.14C216.96 38.92 212.76 36.34 209.38 36.34C208.212 36.3516 207.062 36.6339 206.02 37.1649C204.979 37.6958 204.076 38.4609 203.38 39.4C203.163 39.6831 202.873 39.9029 202.542 40.0364C202.211 40.1699 201.85 40.2123 201.497 40.1592C201.144 40.1062 200.811 39.9596 200.534 39.7346C200.257 39.5096 200.045 39.2145 199.92 38.88C198.702 35.3955 196.705 32.2352 194.08 29.64C191.065 26.6144 187.212 24.564 183.018 23.7545C178.824 22.945 174.484 23.4138 170.56 25.1C166.994 26.7325 163.951 29.3223 161.768 32.5813C159.586 35.8403 158.351 39.6408 158.2 43.56C158.204 44.3758 158.257 45.1906 158.36 46C158.424 46.4869 158.306 46.9802 158.029 47.3859C157.753 47.7916 157.337 48.0814 156.86 48.2C152.86 49.2 146 52.2 146 61.64C146 61.98 146 62.28 146 62.6C146.4 69.66 152.36 74.74 160.18 74.74H170.18V78.74H160.18C150.18 78.74 142.54 72.08 142.02 62.9C142.02 62.42 142.02 62.04 142.02 61.64C141.87 57.8657 142.996 54.151 145.217 51.0956C147.438 48.0401 150.624 45.8222 154.26 44.8C154.26 44.38 154.26 43.94 154.26 43.52C154.365 38.6314 155.911 33.8827 158.705 29.87C161.5 25.8572 165.417 22.7591 169.965 20.9645C174.513 19.1699 179.491 18.7587 184.272 19.7827C189.053 20.8066 193.426 23.22 196.84 26.72C199.187 29.0201 201.092 31.7317 202.46 34.72C204.438 33.1951 206.863 32.3655 209.36 32.36C214.66 32.36 220.22 36.1 221.36 44.36C230.88 46.78 236.12 52.92 236.12 61.82C236 72.76 229.54 78.78 217.8 78.78ZM196.5 78.78H181.5V74.78H196.5V78.78Z" fill="#232F3E"/>
<path d="M202.12 76.9C201.595 76.8978 201.092 76.6895 200.72 76.32L189.46 65.08L192.28 62.24L202.12 72L211.96 62.16L214.78 65L203.54 76.24C203.36 76.4398 203.141 76.6013 202.897 76.7147C202.653 76.8281 202.389 76.8911 202.12 76.9V76.9Z" fill="#232F3E"/>
<path d="M204.12 44.9H200.12V73.02H204.12V44.9Z" fill="#232F3E"/>
<path d="M185.72 57.58L175.88 47.74L166.04 57.58L163.22 54.74L174.46 43.5C174.835 43.1275 175.342 42.9184 175.87 42.9184C176.399 42.9184 176.905 43.1275 177.28 43.5L188.54 54.74L185.72 57.58Z" fill="#232F3E"/>
<path d="M177.88 44.9H173.88V78.66H177.88V44.9Z" fill="#232F3E"/>
<path d="M220.1 665H152C150.298 665.013 148.609 664.689 147.033 664.047C145.456 663.405 144.022 662.456 142.814 661.257C141.605 660.058 140.646 658.631 139.991 657.06C139.337 655.488 139 653.803 139 652.1V584C138.987 582.289 139.314 580.593 139.962 579.009C140.611 577.426 141.568 575.988 142.778 574.778C143.988 573.568 145.426 572.611 147.009 571.962C148.593 571.314 150.289 570.987 152 571H220.2C221.894 571.013 223.569 571.36 225.129 572.02C226.689 572.681 228.104 573.642 229.292 574.849C230.481 576.056 231.42 577.486 232.056 579.056C232.693 580.626 233.013 582.306 233 584V652.2C232.974 655.604 231.603 658.859 229.186 661.257C226.77 663.655 223.504 665 220.1 665V665ZM152 575C150.815 574.989 149.64 575.215 148.543 575.663C147.446 576.112 146.45 576.774 145.612 577.612C144.774 578.45 144.112 579.447 143.663 580.543C143.215 581.64 142.989 582.815 143 584V652.2C143.032 654.559 143.996 656.809 145.683 658.458C147.37 660.107 149.641 661.021 152 661H220.2C222.559 660.995 224.819 660.055 226.487 658.387C228.155 656.72 229.095 654.459 229.1 652.1V584C229.111 582.815 228.885 581.64 228.437 580.543C227.988 579.447 227.326 578.45 226.488 577.612C225.65 576.774 224.653 576.112 223.557 575.663C222.46 575.215 221.285 574.989 220.1 575H152Z" fill="#D86613"/>
<path d="M182.24 603.12H152.24C151.71 603.12 151.201 602.909 150.826 602.534C150.451 602.159 150.24 601.65 150.24 601.12V582.38C150.24 581.85 150.451 581.341 150.826 580.966C151.201 580.591 151.71 580.38 152.24 580.38H182.24C182.77 580.38 183.279 580.591 183.654 580.966C184.029 581.341 184.24 581.85 184.24 582.38V601.12C184.24 601.65 184.029 602.159 183.654 602.534C183.279 602.909 182.77 603.12 182.24 603.12ZM154.24 599.12H180.24V584.38H154.24V599.12Z" fill="#D86613"/>
<path d="M161.76 588H157.76V595.5H161.76V588Z" fill="#D86613"/>
<path d="M169.26 588H165.26V595.5H169.26V588Z" fill="#D86613"/>
<path d="M176.76 588H172.76V595.5H176.76V588Z" fill="#D86613"/>
<path d="M182.24 629.38H152.24C151.71 629.38 151.201 629.169 150.826 628.794C150.451 628.419 150.24 627.91 150.24 627.38V608.62C150.24 608.09 150.451 607.581 150.826 607.206C151.201 606.831 151.71 606.62 152.24 606.62H182.24C182.77 606.62 183.279 606.831 183.654 607.206C184.029 607.581 184.24 608.09 184.24 608.62V627.38C184.24 627.91 184.029 628.419 183.654 628.794C183.279 629.169 182.77 629.38 182.24 629.38V629.38ZM154.24 625.38H180.24V610.62H154.24V625.38Z" fill="#D86613"/>
<path d="M161.76 614.26H157.76V621.76H161.76V614.26Z" fill="#D86613"/>
<path d="M169.26 614.26H165.26V621.76H169.26V614.26Z" fill="#D86613"/>
<path d="M176.76 614.26H172.76V621.76H176.76V614.26Z" fill="#D86613"/>
<path d="M182.24 655.62H152.24C151.71 655.62 151.201 655.409 150.826 655.034C150.451 654.659 150.24 654.15 150.24 653.62V634.88C150.24 634.35 150.451 633.841 150.826 633.466C151.201 633.091 151.71 632.88 152.24 632.88H182.24C182.77 632.88 183.279 633.091 183.654 633.466C184.029 633.841 184.24 634.35 184.24 634.88V653.62C184.24 653.883 184.188 654.143 184.088 654.385C183.987 654.628 183.84 654.849 183.654 655.034C183.468 655.22 183.248 655.367 183.005 655.468C182.763 655.568 182.503 655.62 182.24 655.62ZM154.24 651.62H180.24V636.88H154.24V651.62Z" fill="#D86613"/>
<path d="M161.76 640.5H157.76V648H161.76V640.5Z" fill="#D86613"/>
<path d="M169.26 640.5H165.26V648H169.26V640.5Z" fill="#D86613"/>
<path d="M176.76 640.5H172.76V648H176.76V640.5Z" fill="#D86613"/>
<path d="M219.76 603.12H189.76C189.23 603.12 188.721 602.909 188.346 602.534C187.971 602.159 187.76 601.65 187.76 601.12V582.38C187.76 581.85 187.971 581.341 188.346 580.966C188.721 580.591 189.23 580.38 189.76 580.38H219.76C220.29 580.38 220.799 580.591 221.174 580.966C221.549 581.341 221.76 581.85 221.76 582.38V601.12C221.76 601.65 221.549 602.159 221.174 602.534C220.799 602.909 220.29 603.12 219.76 603.12ZM191.76 599.12H217.76V584.38H191.76V599.12Z" fill="#D86613"/>
<path d="M199.26 588H195.26V595.5H199.26V588Z" fill="#D86613"/>
<path d="M206.76 588H202.76V595.5H206.76V588Z" fill="#D86613"/>
<path d="M214.26 588H210.26V595.5H214.26V588Z" fill="#D86613"/>
<path d="M219.76 629.38H189.76C189.23 629.38 188.721 629.169 188.346 628.794C187.971 628.419 187.76 627.91 187.76 627.38V608.62C187.76 608.09 187.971 607.581 188.346 607.206C188.721 606.831 189.23 606.62 189.76 606.62H219.76C220.29 606.62 220.799 606.831 221.174 607.206C221.549 607.581 221.76 608.09 221.76 608.62V627.38C221.76 627.91 221.549 628.419 221.174 628.794C220.799 629.169 220.29 629.38 219.76 629.38V629.38ZM191.76 625.38H217.76V610.62H191.76V625.38Z" fill="#D86613"/>
<path d="M199.26 614.26H195.26V621.76H199.26V614.26Z" fill="#D86613"/>
<path d="M206.76 614.26H202.76V621.76H206.76V614.26Z" fill="#D86613"/>
<path d="M214.26 614.26H210.26V621.76H214.26V614.26Z" fill="#D86613"/>
<path d="M219.76 655.62H189.76C189.23 655.62 188.721 655.409 188.346 655.034C187.971 654.659 187.76 654.15 187.76 653.62V634.88C187.76 634.35 187.971 633.841 188.346 633.466C188.721 633.091 189.23 632.88 189.76 632.88H219.76C220.29 632.88 220.799 633.091 221.174 633.466C221.549 633.841 221.76 634.35 221.76 634.88V653.62C221.76 653.883 221.708 654.143 221.608 654.385C221.507 654.628 221.36 654.849 221.174 655.034C220.989 655.22 220.768 655.367 220.525 655.468C220.283 655.568 220.023 655.62 219.76 655.62ZM191.76 651.62H217.76V636.88H191.76V651.62Z" fill="#D86613"/>
<path d="M199.26 640.5H195.26V648H199.26V640.5Z" fill="#D86613"/>
<path d="M206.76 640.5H202.76V648H206.76V640.5Z" fill="#D86613"/>
<path d="M214.26 640.5H210.26V648H214.26V640.5Z" fill="#D86613"/>
<path d="M236 385H136V485H236V385Z" fill="#D86613"/>
<path d="M202.053 436.333C202.388 438.39 203.485 440.245 205.126 441.53C206.767 442.814 208.831 443.434 210.908 443.266C212.985 443.098 214.922 442.155 216.335 440.623C217.748 439.091 218.532 437.084 218.532 435C218.532 432.916 217.748 430.909 216.335 429.377C214.922 427.846 212.985 426.902 210.908 426.734C208.831 426.566 206.767 427.186 205.126 428.47C203.485 429.755 202.388 431.61 202.053 433.667H192.107C191.952 431.212 191.318 428.811 190.24 426.6L202.24 416.453C203.713 417.619 205.537 418.25 207.415 418.243C209.293 418.237 211.113 417.594 212.577 416.418C214.042 415.243 215.064 413.605 215.477 411.773C215.89 409.941 215.669 408.023 214.85 406.334C214.031 404.644 212.663 403.282 210.969 402.47C209.275 401.659 207.357 401.447 205.527 401.868C203.696 402.289 202.064 403.319 200.895 404.789C199.726 406.259 199.091 408.082 199.093 409.96C199.078 411.57 199.542 413.148 200.427 414.493L188.827 424.267C186.524 420.816 183.172 418.198 179.266 416.799C175.361 415.4 171.109 415.295 167.139 416.498C163.169 417.701 159.691 420.15 157.219 423.481C154.748 426.813 153.413 430.852 153.413 435C153.413 439.149 154.748 443.187 157.219 446.519C159.691 449.851 163.169 452.299 167.139 453.502C171.109 454.706 175.361 454.6 179.266 453.201C183.172 451.802 186.524 449.184 188.827 445.733L200.427 455.507C199.542 456.852 199.078 458.43 199.093 460.04C199.093 461.914 199.728 463.733 200.895 465.2C202.062 466.666 203.693 467.693 205.519 468.113C207.346 468.533 209.261 468.32 210.951 467.51C212.642 466.7 214.007 465.341 214.825 463.654C215.642 461.968 215.863 460.053 215.451 458.225C215.039 456.396 214.02 454.762 212.558 453.588C211.097 452.414 209.281 451.771 207.406 451.763C205.532 451.756 203.711 452.385 202.24 453.547L190.24 443.4C191.318 441.189 191.952 438.788 192.107 436.333H202.053ZM210.213 429.373C211.327 429.371 212.416 429.698 213.343 430.315C214.27 430.932 214.993 431.81 215.421 432.838C215.849 433.865 215.962 434.997 215.747 436.09C215.531 437.182 214.996 438.186 214.21 438.974C213.424 439.762 212.421 440.299 211.329 440.518C210.237 440.736 209.105 440.625 208.077 440.2C207.048 439.774 206.168 439.053 205.549 438.127C204.93 437.202 204.6 436.113 204.6 435C204.6 433.51 205.191 432.081 206.243 431.026C207.296 429.971 208.723 429.377 210.213 429.373V429.373ZM207.44 404.333C208.553 404.333 209.641 404.663 210.566 405.282C211.491 405.9 212.212 406.779 212.638 407.807C213.064 408.835 213.176 409.966 212.959 411.058C212.741 412.149 212.206 413.152 211.419 413.939C210.632 414.726 209.629 415.261 208.538 415.479C207.446 415.696 206.315 415.584 205.287 415.158C204.259 414.733 203.38 414.011 202.762 413.086C202.143 412.161 201.813 411.073 201.813 409.96C201.813 408.468 202.406 407.037 203.461 405.981C204.517 404.926 205.948 404.333 207.44 404.333ZM207.44 454.427C208.553 454.427 209.642 454.757 210.567 455.376C211.493 455.995 212.214 456.874 212.64 457.903C213.065 458.932 213.176 460.064 212.958 461.156C212.739 462.248 212.202 463.25 211.414 464.037C210.626 464.823 209.622 465.358 208.53 465.574C207.437 465.789 206.305 465.676 205.278 465.248C204.25 464.82 203.372 464.097 202.755 463.17C202.138 462.243 201.811 461.153 201.813 460.04C201.817 458.55 202.411 457.122 203.466 456.07C204.521 455.018 205.95 454.427 207.44 454.427ZM172.827 451.667C169.53 451.667 166.308 450.689 163.567 448.858C160.826 447.027 158.69 444.424 157.429 441.378C156.167 438.333 155.837 434.982 156.48 431.749C157.123 428.516 158.711 425.546 161.042 423.215C163.372 420.884 166.342 419.297 169.575 418.654C172.808 418.011 176.159 418.341 179.205 419.602C182.25 420.864 184.853 423 186.684 425.741C188.516 428.481 189.493 431.704 189.493 435C189.486 439.418 187.728 443.653 184.604 446.777C181.48 449.901 177.245 451.66 172.827 451.667V451.667Z" fill="white"/>
<path d="M160.93 103H159.43V91.625H160.93V103ZM164.82 94.5469L164.867 95.6094C165.513 94.7969 166.357 94.3906 167.398 94.3906C169.185 94.3906 170.086 95.3984 170.102 97.4141V103H168.656V97.4062C168.651 96.7969 168.51 96.3464 168.234 96.0547C167.964 95.763 167.539 95.6172 166.961 95.6172C166.492 95.6172 166.081 95.7422 165.727 95.9922C165.372 96.2422 165.096 96.5703 164.898 96.9766V103H163.453V94.5469H164.82ZM174.242 92.5V94.5469H175.82V95.6641H174.242V100.906C174.242 101.245 174.312 101.5 174.453 101.672C174.594 101.839 174.833 101.922 175.172 101.922C175.339 101.922 175.568 101.891 175.859 101.828V103C175.479 103.104 175.109 103.156 174.75 103.156C174.104 103.156 173.617 102.961 173.289 102.57C172.961 102.18 172.797 101.625 172.797 100.906V95.6641H171.258V94.5469H172.797V92.5H174.242ZM181.023 103.156C179.878 103.156 178.945 102.781 178.227 102.031C177.508 101.276 177.148 100.268 177.148 99.0078V98.7422C177.148 97.9036 177.307 97.1562 177.625 96.5C177.948 95.8385 178.396 95.3229 178.969 94.9531C179.547 94.5781 180.172 94.3906 180.844 94.3906C181.943 94.3906 182.797 94.7526 183.406 95.4766C184.016 96.2005 184.32 97.237 184.32 98.5859V99.1875H178.594C178.615 100.021 178.857 100.695 179.32 101.211C179.789 101.721 180.383 101.977 181.102 101.977C181.612 101.977 182.044 101.872 182.398 101.664C182.753 101.456 183.062 101.18 183.328 100.836L184.211 101.523C183.503 102.612 182.44 103.156 181.023 103.156ZM180.844 95.5781C180.26 95.5781 179.771 95.7917 179.375 96.2188C178.979 96.6406 178.734 97.2344 178.641 98H182.875V97.8906C182.833 97.1562 182.635 96.5885 182.281 96.1875C181.927 95.7812 181.448 95.5781 180.844 95.5781ZM190.086 95.8438C189.867 95.8073 189.63 95.7891 189.375 95.7891C188.427 95.7891 187.784 96.1927 187.445 97V103H186V94.5469H187.406L187.43 95.5234C187.904 94.7682 188.576 94.3906 189.445 94.3906C189.727 94.3906 189.94 94.4271 190.086 94.5V95.8438ZM192.789 94.5469L192.836 95.6094C193.482 94.7969 194.326 94.3906 195.367 94.3906C197.154 94.3906 198.055 95.3984 198.07 97.4141V103H196.625V97.4062C196.62 96.7969 196.479 96.3464 196.203 96.0547C195.932 95.763 195.508 95.6172 194.93 95.6172C194.461 95.6172 194.049 95.7422 193.695 95.9922C193.341 96.2422 193.065 96.5703 192.867 96.9766V103H191.422V94.5469H192.789ZM203.758 103.156C202.612 103.156 201.68 102.781 200.961 102.031C200.242 101.276 199.883 100.268 199.883 99.0078V98.7422C199.883 97.9036 200.042 97.1562 200.359 96.5C200.682 95.8385 201.13 95.3229 201.703 94.9531C202.281 94.5781 202.906 94.3906 203.578 94.3906C204.677 94.3906 205.531 94.7526 206.141 95.4766C206.75 96.2005 207.055 97.237 207.055 98.5859V99.1875H201.328C201.349 100.021 201.591 100.695 202.055 101.211C202.523 101.721 203.117 101.977 203.836 101.977C204.346 101.977 204.779 101.872 205.133 101.664C205.487 101.456 205.797 101.18 206.062 100.836L206.945 101.523C206.237 102.612 205.174 103.156 203.758 103.156ZM203.578 95.5781C202.995 95.5781 202.505 95.7917 202.109 96.2188C201.714 96.6406 201.469 97.2344 201.375 98H205.609V97.8906C205.568 97.1562 205.37 96.5885 205.016 96.1875C204.661 95.7812 204.182 95.5781 203.578 95.5781ZM210.695 92.5V94.5469H212.273V95.6641H210.695V100.906C210.695 101.245 210.766 101.5 210.906 101.672C211.047 101.839 211.286 101.922 211.625 101.922C211.792 101.922 212.021 101.891 212.312 101.828V103C211.932 103.104 211.562 103.156 211.203 103.156C210.557 103.156 210.07 102.961 209.742 102.57C209.414 102.18 209.25 101.625 209.25 100.906V95.6641H207.711V94.5469H209.25V92.5H210.695Z" fill="black"/>
<path d="M355.062 329H353.555L347.828 320.234V329H346.32V317.625H347.828L353.57 326.43V317.625H355.062V329ZM364.148 326.031H359.383L358.312 329H356.766L361.109 317.625H362.422L366.773 329H365.234L364.148 326.031ZM359.836 324.797H363.703L361.766 319.477L359.836 324.797ZM375.148 318.859H371.492V329H370V318.859H366.352V317.625H375.148V318.859ZM388.891 327.508C388.505 328.06 387.966 328.474 387.273 328.75C386.586 329.021 385.784 329.156 384.867 329.156C383.94 329.156 383.117 328.94 382.398 328.508C381.68 328.07 381.122 327.451 380.727 326.648C380.336 325.846 380.135 324.917 380.125 323.859V322.867C380.125 321.154 380.523 319.826 381.32 318.883C382.122 317.94 383.247 317.469 384.695 317.469C385.883 317.469 386.839 317.773 387.562 318.383C388.286 318.987 388.729 319.846 388.891 320.961H387.391C387.109 319.456 386.214 318.703 384.703 318.703C383.698 318.703 382.935 319.057 382.414 319.766C381.898 320.469 381.638 321.49 381.633 322.828V323.758C381.633 325.034 381.924 326.049 382.508 326.805C383.091 327.555 383.88 327.93 384.875 327.93C385.438 327.93 385.93 327.867 386.352 327.742C386.773 327.617 387.122 327.406 387.398 327.109V324.555H384.766V323.336H388.891V327.508ZM396.391 329C396.307 328.833 396.24 328.536 396.188 328.109C395.516 328.807 394.714 329.156 393.781 329.156C392.948 329.156 392.263 328.922 391.727 328.453C391.195 327.979 390.93 327.38 390.93 326.656C390.93 325.776 391.263 325.094 391.93 324.609C392.602 324.12 393.544 323.875 394.758 323.875H396.164V323.211C396.164 322.706 396.013 322.305 395.711 322.008C395.409 321.706 394.964 321.555 394.375 321.555C393.859 321.555 393.427 321.685 393.078 321.945C392.729 322.206 392.555 322.521 392.555 322.891H391.102C391.102 322.469 391.25 322.062 391.547 321.672C391.849 321.276 392.255 320.964 392.766 320.734C393.281 320.505 393.846 320.391 394.461 320.391C395.435 320.391 396.198 320.635 396.75 321.125C397.302 321.609 397.589 322.279 397.609 323.133V327.023C397.609 327.799 397.708 328.417 397.906 328.875V329H396.391ZM393.992 327.898C394.445 327.898 394.875 327.781 395.281 327.547C395.688 327.312 395.982 327.008 396.164 326.633V324.898H395.031C393.26 324.898 392.375 325.417 392.375 326.453C392.375 326.906 392.526 327.26 392.828 327.516C393.13 327.771 393.518 327.898 393.992 327.898ZM401.836 318.5V320.547H403.414V321.664H401.836V326.906C401.836 327.245 401.906 327.5 402.047 327.672C402.188 327.839 402.427 327.922 402.766 327.922C402.932 327.922 403.161 327.891 403.453 327.828V329C403.073 329.104 402.703 329.156 402.344 329.156C401.698 329.156 401.211 328.961 400.883 328.57C400.555 328.18 400.391 327.625 400.391 326.906V321.664H398.852V320.547H400.391V318.5H401.836ZM408.617 329.156C407.471 329.156 406.539 328.781 405.82 328.031C405.102 327.276 404.742 326.268 404.742 325.008V324.742C404.742 323.904 404.901 323.156 405.219 322.5C405.542 321.839 405.99 321.323 406.562 320.953C407.141 320.578 407.766 320.391 408.438 320.391C409.536 320.391 410.391 320.753 411 321.477C411.609 322.201 411.914 323.237 411.914 324.586V325.188H406.188C406.208 326.021 406.451 326.695 406.914 327.211C407.383 327.721 407.977 327.977 408.695 327.977C409.206 327.977 409.638 327.872 409.992 327.664C410.346 327.456 410.656 327.18 410.922 326.836L411.805 327.523C411.096 328.612 410.034 329.156 408.617 329.156ZM408.438 321.578C407.854 321.578 407.365 321.792 406.969 322.219C406.573 322.641 406.328 323.234 406.234 324H410.469V323.891C410.427 323.156 410.229 322.589 409.875 322.188C409.521 321.781 409.042 321.578 408.438 321.578ZM421.078 327.008L422.703 320.547H424.148L421.688 329H420.516L418.461 322.594L416.461 329H415.289L412.836 320.547H414.273L415.938 326.875L417.906 320.547H419.07L421.078 327.008ZM430.844 329C430.76 328.833 430.693 328.536 430.641 328.109C429.969 328.807 429.167 329.156 428.234 329.156C427.401 329.156 426.716 328.922 426.18 328.453C425.648 327.979 425.383 327.38 425.383 326.656C425.383 325.776 425.716 325.094 426.383 324.609C427.055 324.12 427.997 323.875 429.211 323.875H430.617V323.211C430.617 322.706 430.466 322.305 430.164 322.008C429.862 321.706 429.417 321.555 428.828 321.555C428.312 321.555 427.88 321.685 427.531 321.945C427.182 322.206 427.008 322.521 427.008 322.891H425.555C425.555 322.469 425.703 322.062 426 321.672C426.302 321.276 426.708 320.964 427.219 320.734C427.734 320.505 428.299 320.391 428.914 320.391C429.888 320.391 430.651 320.635 431.203 321.125C431.755 321.609 432.042 322.279 432.062 323.133V327.023C432.062 327.799 432.161 328.417 432.359 328.875V329H430.844ZM428.445 327.898C428.898 327.898 429.328 327.781 429.734 327.547C430.141 327.312 430.435 327.008 430.617 326.633V324.898H429.484C427.714 324.898 426.828 325.417 426.828 326.453C426.828 326.906 426.979 327.26 427.281 327.516C427.583 327.771 427.971 327.898 428.445 327.898ZM436.969 326.883L438.938 320.547H440.484L437.086 330.305C436.56 331.711 435.724 332.414 434.578 332.414L434.305 332.391L433.766 332.289V331.117L434.156 331.148C434.646 331.148 435.026 331.049 435.297 330.852C435.573 330.654 435.799 330.292 435.977 329.766L436.297 328.906L433.281 320.547H434.859L436.969 326.883Z" fill="black"/>
<path d="M127.93 329H126.43V317.625H127.93V329ZM131.82 320.547L131.867 321.609C132.513 320.797 133.357 320.391 134.398 320.391C136.185 320.391 137.086 321.398 137.102 323.414V329H135.656V323.406C135.651 322.797 135.51 322.346 135.234 322.055C134.964 321.763 134.539 321.617 133.961 321.617C133.492 321.617 133.081 321.742 132.727 321.992C132.372 322.242 132.096 322.57 131.898 322.977V329H130.453V320.547H131.82ZM141.242 318.5V320.547H142.82V321.664H141.242V326.906C141.242 327.245 141.312 327.5 141.453 327.672C141.594 327.839 141.833 327.922 142.172 327.922C142.339 327.922 142.568 327.891 142.859 327.828V329C142.479 329.104 142.109 329.156 141.75 329.156C141.104 329.156 140.617 328.961 140.289 328.57C139.961 328.18 139.797 327.625 139.797 326.906V321.664H138.258V320.547H139.797V318.5H141.242ZM148.023 329.156C146.878 329.156 145.945 328.781 145.227 328.031C144.508 327.276 144.148 326.268 144.148 325.008V324.742C144.148 323.904 144.307 323.156 144.625 322.5C144.948 321.839 145.396 321.323 145.969 320.953C146.547 320.578 147.172 320.391 147.844 320.391C148.943 320.391 149.797 320.753 150.406 321.477C151.016 322.201 151.32 323.237 151.32 324.586V325.188H145.594C145.615 326.021 145.857 326.695 146.32 327.211C146.789 327.721 147.383 327.977 148.102 327.977C148.612 327.977 149.044 327.872 149.398 327.664C149.753 327.456 150.062 327.18 150.328 326.836L151.211 327.523C150.503 328.612 149.44 329.156 148.023 329.156ZM147.844 321.578C147.26 321.578 146.771 321.792 146.375 322.219C145.979 322.641 145.734 323.234 145.641 324H149.875V323.891C149.833 323.156 149.635 322.589 149.281 322.188C148.927 321.781 148.448 321.578 147.844 321.578ZM157.086 321.844C156.867 321.807 156.63 321.789 156.375 321.789C155.427 321.789 154.784 322.193 154.445 323V329H153V320.547H154.406L154.43 321.523C154.904 320.768 155.576 320.391 156.445 320.391C156.727 320.391 156.94 320.427 157.086 320.5V321.844ZM159.789 320.547L159.836 321.609C160.482 320.797 161.326 320.391 162.367 320.391C164.154 320.391 165.055 321.398 165.07 323.414V329H163.625V323.406C163.62 322.797 163.479 322.346 163.203 322.055C162.932 321.763 162.508 321.617 161.93 321.617C161.461 321.617 161.049 321.742 160.695 321.992C160.341 322.242 160.065 322.57 159.867 322.977V329H158.422V320.547H159.789ZM170.758 329.156C169.612 329.156 168.68 328.781 167.961 328.031C167.242 327.276 166.883 326.268 166.883 325.008V324.742C166.883 323.904 167.042 323.156 167.359 322.5C167.682 321.839 168.13 321.323 168.703 320.953C169.281 320.578 169.906 320.391 170.578 320.391C171.677 320.391 172.531 320.753 173.141 321.477C173.75 322.201 174.055 323.237 174.055 324.586V325.188H168.328C168.349 326.021 168.591 326.695 169.055 327.211C169.523 327.721 170.117 327.977 170.836 327.977C171.346 327.977 171.779 327.872 172.133 327.664C172.487 327.456 172.797 327.18 173.062 326.836L173.945 327.523C173.237 328.612 172.174 329.156 170.758 329.156ZM170.578 321.578C169.995 321.578 169.505 321.792 169.109 322.219C168.714 322.641 168.469 323.234 168.375 324H172.609V323.891C172.568 323.156 172.37 322.589 172.016 322.188C171.661 321.781 171.182 321.578 170.578 321.578ZM177.695 318.5V320.547H179.273V321.664H177.695V326.906C177.695 327.245 177.766 327.5 177.906 327.672C178.047 327.839 178.286 327.922 178.625 327.922C178.792 327.922 179.021 327.891 179.312 327.828V329C178.932 329.104 178.562 329.156 178.203 329.156C177.557 329.156 177.07 328.961 176.742 328.57C176.414 328.18 176.25 327.625 176.25 326.906V321.664H174.711V320.547H176.25V318.5H177.695ZM193.562 327.508C193.177 328.06 192.638 328.474 191.945 328.75C191.258 329.021 190.456 329.156 189.539 329.156C188.612 329.156 187.789 328.94 187.07 328.508C186.352 328.07 185.794 327.451 185.398 326.648C185.008 325.846 184.807 324.917 184.797 323.859V322.867C184.797 321.154 185.195 319.826 185.992 318.883C186.794 317.94 187.919 317.469 189.367 317.469C190.555 317.469 191.51 317.773 192.234 318.383C192.958 318.987 193.401 319.846 193.562 320.961H192.062C191.781 319.456 190.885 318.703 189.375 318.703C188.37 318.703 187.607 319.057 187.086 319.766C186.57 320.469 186.31 321.49 186.305 322.828V323.758C186.305 325.034 186.596 326.049 187.18 326.805C187.763 327.555 188.552 327.93 189.547 327.93C190.109 327.93 190.602 327.867 191.023 327.742C191.445 327.617 191.794 327.406 192.07 327.109V324.555H189.438V323.336H193.562V327.508ZM201.062 329C200.979 328.833 200.911 328.536 200.859 328.109C200.188 328.807 199.385 329.156 198.453 329.156C197.62 329.156 196.935 328.922 196.398 328.453C195.867 327.979 195.602 327.38 195.602 326.656C195.602 325.776 195.935 325.094 196.602 324.609C197.273 324.12 198.216 323.875 199.43 323.875H200.836V323.211C200.836 322.706 200.685 322.305 200.383 322.008C200.081 321.706 199.635 321.555 199.047 321.555C198.531 321.555 198.099 321.685 197.75 321.945C197.401 322.206 197.227 322.521 197.227 322.891H195.773C195.773 322.469 195.922 322.062 196.219 321.672C196.521 321.276 196.927 320.964 197.438 320.734C197.953 320.505 198.518 320.391 199.133 320.391C200.107 320.391 200.87 320.635 201.422 321.125C201.974 321.609 202.26 322.279 202.281 323.133V327.023C202.281 327.799 202.38 328.417 202.578 328.875V329H201.062ZM198.664 327.898C199.117 327.898 199.547 327.781 199.953 327.547C200.359 327.312 200.654 327.008 200.836 326.633V324.898H199.703C197.932 324.898 197.047 325.417 197.047 326.453C197.047 326.906 197.198 327.26 197.5 327.516C197.802 327.771 198.19 327.898 198.664 327.898ZM206.508 318.5V320.547H208.086V321.664H206.508V326.906C206.508 327.245 206.578 327.5 206.719 327.672C206.859 327.839 207.099 327.922 207.438 327.922C207.604 327.922 207.833 327.891 208.125 327.828V329C207.745 329.104 207.375 329.156 207.016 329.156C206.37 329.156 205.883 328.961 205.555 328.57C205.227 328.18 205.062 327.625 205.062 326.906V321.664H203.523V320.547H205.062V318.5H206.508ZM213.289 329.156C212.143 329.156 211.211 328.781 210.492 328.031C209.773 327.276 209.414 326.268 209.414 325.008V324.742C209.414 323.904 209.573 323.156 209.891 322.5C210.214 321.839 210.661 321.323 211.234 320.953C211.812 320.578 212.438 320.391 213.109 320.391C214.208 320.391 215.062 320.753 215.672 321.477C216.281 322.201 216.586 323.237 216.586 324.586V325.188H210.859C210.88 326.021 211.122 326.695 211.586 327.211C212.055 327.721 212.648 327.977 213.367 327.977C213.878 327.977 214.31 327.872 214.664 327.664C215.018 327.456 215.328 327.18 215.594 326.836L216.477 327.523C215.768 328.612 214.706 329.156 213.289 329.156ZM213.109 321.578C212.526 321.578 212.036 321.792 211.641 322.219C211.245 322.641 211 323.234 210.906 324H215.141V323.891C215.099 323.156 214.901 322.589 214.547 322.188C214.193 321.781 213.714 321.578 213.109 321.578ZM225.75 327.008L227.375 320.547H228.82L226.359 329H225.188L223.133 322.594L221.133 329H219.961L217.508 320.547H218.945L220.609 326.875L222.578 320.547H223.742L225.75 327.008ZM235.516 329C235.432 328.833 235.365 328.536 235.312 328.109C234.641 328.807 233.839 329.156 232.906 329.156C232.073 329.156 231.388 328.922 230.852 328.453C230.32 327.979 230.055 327.38 230.055 326.656C230.055 325.776 230.388 325.094 231.055 324.609C231.727 324.12 232.669 323.875 233.883 323.875H235.289V323.211C235.289 322.706 235.138 322.305 234.836 322.008C234.534 321.706 234.089 321.555 233.5 321.555C232.984 321.555 232.552 321.685 232.203 321.945C231.854 322.206 231.68 322.521 231.68 322.891H230.227C230.227 322.469 230.375 322.062 230.672 321.672C230.974 321.276 231.38 320.964 231.891 320.734C232.406 320.505 232.971 320.391 233.586 320.391C234.56 320.391 235.323 320.635 235.875 321.125C236.427 321.609 236.714 322.279 236.734 323.133V327.023C236.734 327.799 236.833 328.417 237.031 328.875V329H235.516ZM233.117 327.898C233.57 327.898 234 327.781 234.406 327.547C234.812 327.312 235.107 327.008 235.289 326.633V324.898H234.156C232.385 324.898 231.5 325.417 231.5 326.453C231.5 326.906 231.651 327.26 231.953 327.516C232.255 327.771 232.643 327.898 233.117 327.898ZM241.641 326.883L243.609 320.547H245.156L241.758 330.305C241.232 331.711 240.396 332.414 239.25 332.414L238.977 332.391L238.438 332.289V331.117L238.828 331.148C239.318 331.148 239.698 331.049 239.969 330.852C240.245 330.654 240.471 330.292 240.648 329.766L240.969 328.906L237.953 320.547H239.531L241.641 326.883Z" fill="black"/>
<path d="M116.75 504.742H111.82V508.773H117.547V510H110.32V498.625H117.469V499.859H111.82V503.516H116.75V504.742ZM120.758 510H119.312V498H120.758V510ZM128.297 510C128.214 509.833 128.146 509.536 128.094 509.109C127.422 509.807 126.62 510.156 125.688 510.156C124.854 510.156 124.169 509.922 123.633 509.453C123.102 508.979 122.836 508.38 122.836 507.656C122.836 506.776 123.169 506.094 123.836 505.609C124.508 505.12 125.451 504.875 126.664 504.875H128.07V504.211C128.07 503.706 127.919 503.305 127.617 503.008C127.315 502.706 126.87 502.555 126.281 502.555C125.766 502.555 125.333 502.685 124.984 502.945C124.635 503.206 124.461 503.521 124.461 503.891H123.008C123.008 503.469 123.156 503.062 123.453 502.672C123.755 502.276 124.161 501.964 124.672 501.734C125.188 501.505 125.753 501.391 126.367 501.391C127.341 501.391 128.104 501.635 128.656 502.125C129.208 502.609 129.495 503.279 129.516 504.133V508.023C129.516 508.799 129.615 509.417 129.812 509.875V510H128.297ZM125.898 508.898C126.352 508.898 126.781 508.781 127.188 508.547C127.594 508.312 127.888 508.008 128.07 507.633V505.898H126.938C125.167 505.898 124.281 506.417 124.281 507.453C124.281 507.906 124.432 508.26 124.734 508.516C125.036 508.771 125.424 508.898 125.898 508.898ZM136.703 507.758C136.703 507.367 136.555 507.065 136.258 506.852C135.966 506.633 135.453 506.445 134.719 506.289C133.99 506.133 133.409 505.945 132.977 505.727C132.549 505.508 132.232 505.247 132.023 504.945C131.82 504.643 131.719 504.284 131.719 503.867C131.719 503.174 132.01 502.589 132.594 502.109C133.182 501.63 133.932 501.391 134.844 501.391C135.802 501.391 136.578 501.638 137.172 502.133C137.771 502.628 138.07 503.26 138.07 504.031H136.617C136.617 503.635 136.448 503.294 136.109 503.008C135.776 502.721 135.354 502.578 134.844 502.578C134.318 502.578 133.906 502.693 133.609 502.922C133.312 503.151 133.164 503.451 133.164 503.82C133.164 504.169 133.302 504.432 133.578 504.609C133.854 504.786 134.352 504.956 135.07 505.117C135.794 505.279 136.38 505.471 136.828 505.695C137.276 505.919 137.607 506.19 137.82 506.508C138.039 506.82 138.148 507.203 138.148 507.656C138.148 508.411 137.846 509.018 137.242 509.477C136.638 509.93 135.854 510.156 134.891 510.156C134.214 510.156 133.615 510.036 133.094 509.797C132.573 509.557 132.164 509.224 131.867 508.797C131.576 508.365 131.43 507.898 131.43 507.398H132.875C132.901 507.883 133.094 508.268 133.453 508.555C133.818 508.836 134.297 508.977 134.891 508.977C135.438 508.977 135.875 508.867 136.203 508.648C136.536 508.424 136.703 508.128 136.703 507.758ZM141.992 499.5V501.547H143.57V502.664H141.992V507.906C141.992 508.245 142.062 508.5 142.203 508.672C142.344 508.839 142.583 508.922 142.922 508.922C143.089 508.922 143.318 508.891 143.609 508.828V510C143.229 510.104 142.859 510.156 142.5 510.156C141.854 510.156 141.367 509.961 141.039 509.57C140.711 509.18 140.547 508.625 140.547 507.906V502.664H139.008V501.547H140.547V499.5H141.992ZM146.836 510H145.391V501.547H146.836V510ZM145.273 499.305C145.273 499.07 145.344 498.872 145.484 498.711C145.63 498.549 145.844 498.469 146.125 498.469C146.406 498.469 146.62 498.549 146.766 498.711C146.911 498.872 146.984 499.07 146.984 499.305C146.984 499.539 146.911 499.734 146.766 499.891C146.62 500.047 146.406 500.125 146.125 500.125C145.844 500.125 145.63 500.047 145.484 499.891C145.344 499.734 145.273 499.539 145.273 499.305ZM152.547 508.977C153.062 508.977 153.513 508.82 153.898 508.508C154.284 508.195 154.497 507.805 154.539 507.336H155.906C155.88 507.82 155.714 508.281 155.406 508.719C155.099 509.156 154.688 509.505 154.172 509.766C153.661 510.026 153.12 510.156 152.547 510.156C151.396 510.156 150.479 509.773 149.797 509.008C149.12 508.237 148.781 507.185 148.781 505.852V505.609C148.781 504.786 148.932 504.055 149.234 503.414C149.536 502.773 149.969 502.276 150.531 501.922C151.099 501.568 151.768 501.391 152.539 501.391C153.487 501.391 154.273 501.674 154.898 502.242C155.529 502.81 155.865 503.547 155.906 504.453H154.539C154.497 503.906 154.289 503.458 153.914 503.109C153.544 502.755 153.086 502.578 152.539 502.578C151.805 502.578 151.234 502.844 150.828 503.375C150.427 503.901 150.227 504.664 150.227 505.664V505.938C150.227 506.911 150.427 507.661 150.828 508.188C151.229 508.714 151.802 508.977 152.547 508.977ZM163.234 508.773H168.625V510H161.727V498.625H163.234V508.773ZM169.727 505.695C169.727 504.867 169.888 504.122 170.211 503.461C170.539 502.799 170.992 502.289 171.57 501.93C172.154 501.57 172.818 501.391 173.562 501.391C174.714 501.391 175.643 501.789 176.352 502.586C177.065 503.383 177.422 504.443 177.422 505.766V505.867C177.422 506.69 177.263 507.43 176.945 508.086C176.633 508.737 176.182 509.245 175.594 509.609C175.01 509.974 174.339 510.156 173.578 510.156C172.432 510.156 171.503 509.758 170.789 508.961C170.081 508.164 169.727 507.109 169.727 505.797V505.695ZM171.18 505.867C171.18 506.805 171.396 507.557 171.828 508.125C172.266 508.693 172.849 508.977 173.578 508.977C174.312 508.977 174.896 508.69 175.328 508.117C175.76 507.539 175.977 506.732 175.977 505.695C175.977 504.768 175.755 504.018 175.312 503.445C174.875 502.867 174.292 502.578 173.562 502.578C172.849 502.578 172.273 502.862 171.836 503.43C171.398 503.997 171.18 504.81 171.18 505.867ZM184.453 510C184.37 509.833 184.302 509.536 184.25 509.109C183.578 509.807 182.776 510.156 181.844 510.156C181.01 510.156 180.326 509.922 179.789 509.453C179.258 508.979 178.992 508.38 178.992 507.656C178.992 506.776 179.326 506.094 179.992 505.609C180.664 505.12 181.607 504.875 182.82 504.875H184.227V504.211C184.227 503.706 184.076 503.305 183.773 503.008C183.471 502.706 183.026 502.555 182.438 502.555C181.922 502.555 181.49 502.685 181.141 502.945C180.792 503.206 180.617 503.521 180.617 503.891H179.164C179.164 503.469 179.312 503.062 179.609 502.672C179.911 502.276 180.318 501.964 180.828 501.734C181.344 501.505 181.909 501.391 182.523 501.391C183.497 501.391 184.26 501.635 184.812 502.125C185.365 502.609 185.651 503.279 185.672 504.133V508.023C185.672 508.799 185.771 509.417 185.969 509.875V510H184.453ZM182.055 508.898C182.508 508.898 182.938 508.781 183.344 508.547C183.75 508.312 184.044 508.008 184.227 507.633V505.898H183.094C181.323 505.898 180.438 506.417 180.438 507.453C180.438 507.906 180.589 508.26 180.891 508.516C181.193 508.771 181.581 508.898 182.055 508.898ZM187.586 505.703C187.586 504.406 187.893 503.365 188.508 502.578C189.122 501.786 189.927 501.391 190.922 501.391C191.911 501.391 192.695 501.729 193.273 502.406V498H194.719V510H193.391L193.32 509.094C192.742 509.802 191.938 510.156 190.906 510.156C189.927 510.156 189.128 509.755 188.508 508.953C187.893 508.151 187.586 507.104 187.586 505.812V505.703ZM189.031 505.867C189.031 506.826 189.229 507.576 189.625 508.117C190.021 508.659 190.568 508.93 191.266 508.93C192.182 508.93 192.852 508.518 193.273 507.695V503.812C192.841 503.016 192.177 502.617 191.281 502.617C190.573 502.617 190.021 502.891 189.625 503.438C189.229 503.984 189.031 504.794 189.031 505.867ZM201.164 510V498.625H204.883C206.117 498.625 207.044 498.88 207.664 499.391C208.289 499.901 208.602 500.656 208.602 501.656C208.602 502.188 208.451 502.659 208.148 503.07C207.846 503.477 207.435 503.792 206.914 504.016C207.529 504.188 208.013 504.516 208.367 505C208.727 505.479 208.906 506.052 208.906 506.719C208.906 507.74 208.576 508.542 207.914 509.125C207.253 509.708 206.318 510 205.109 510H201.164ZM202.664 504.68V508.773H205.141C205.839 508.773 206.388 508.594 206.789 508.234C207.195 507.87 207.398 507.37 207.398 506.734C207.398 505.365 206.654 504.68 205.164 504.68H202.664ZM202.664 503.477H204.93C205.586 503.477 206.109 503.312 206.5 502.984C206.896 502.656 207.094 502.211 207.094 501.648C207.094 501.023 206.911 500.57 206.547 500.289C206.182 500.003 205.628 499.859 204.883 499.859H202.664V503.477ZM216.125 510C216.042 509.833 215.974 509.536 215.922 509.109C215.25 509.807 214.448 510.156 213.516 510.156C212.682 510.156 211.997 509.922 211.461 509.453C210.93 508.979 210.664 508.38 210.664 507.656C210.664 506.776 210.997 506.094 211.664 505.609C212.336 505.12 213.279 504.875 214.492 504.875H215.898V504.211C215.898 503.706 215.747 503.305 215.445 503.008C215.143 502.706 214.698 502.555 214.109 502.555C213.594 502.555 213.161 502.685 212.812 502.945C212.464 503.206 212.289 503.521 212.289 503.891H210.836C210.836 503.469 210.984 503.062 211.281 502.672C211.583 502.276 211.99 501.964 212.5 501.734C213.016 501.505 213.581 501.391 214.195 501.391C215.169 501.391 215.932 501.635 216.484 502.125C217.036 502.609 217.323 503.279 217.344 504.133V508.023C217.344 508.799 217.443 509.417 217.641 509.875V510H216.125ZM213.727 508.898C214.18 508.898 214.609 508.781 215.016 508.547C215.422 508.312 215.716 508.008 215.898 507.633V505.898H214.766C212.995 505.898 212.109 506.417 212.109 507.453C212.109 507.906 212.26 508.26 212.562 508.516C212.865 508.771 213.253 508.898 213.727 508.898ZM221.18 510H219.734V498H221.18V510ZM228.719 510C228.635 509.833 228.568 509.536 228.516 509.109C227.844 509.807 227.042 510.156 226.109 510.156C225.276 510.156 224.591 509.922 224.055 509.453C223.523 508.979 223.258 508.38 223.258 507.656C223.258 506.776 223.591 506.094 224.258 505.609C224.93 505.12 225.872 504.875 227.086 504.875H228.492V504.211C228.492 503.706 228.341 503.305 228.039 503.008C227.737 502.706 227.292 502.555 226.703 502.555C226.188 502.555 225.755 502.685 225.406 502.945C225.057 503.206 224.883 503.521 224.883 503.891H223.43C223.43 503.469 223.578 503.062 223.875 502.672C224.177 502.276 224.583 501.964 225.094 501.734C225.609 501.505 226.174 501.391 226.789 501.391C227.763 501.391 228.526 501.635 229.078 502.125C229.63 502.609 229.917 503.279 229.938 504.133V508.023C229.938 508.799 230.036 509.417 230.234 509.875V510H228.719ZM226.32 508.898C226.773 508.898 227.203 508.781 227.609 508.547C228.016 508.312 228.31 508.008 228.492 507.633V505.898H227.359C225.589 505.898 224.703 506.417 224.703 507.453C224.703 507.906 224.854 508.26 225.156 508.516C225.458 508.771 225.846 508.898 226.32 508.898ZM233.57 501.547L233.617 502.609C234.263 501.797 235.107 501.391 236.148 501.391C237.935 501.391 238.836 502.398 238.852 504.414V510H237.406V504.406C237.401 503.797 237.26 503.346 236.984 503.055C236.714 502.763 236.289 502.617 235.711 502.617C235.242 502.617 234.831 502.742 234.477 502.992C234.122 503.242 233.846 503.57 233.648 503.977V510H232.203V501.547H233.57ZM244.422 508.977C244.938 508.977 245.388 508.82 245.773 508.508C246.159 508.195 246.372 507.805 246.414 507.336H247.781C247.755 507.82 247.589 508.281 247.281 508.719C246.974 509.156 246.562 509.505 246.047 509.766C245.536 510.026 244.995 510.156 244.422 510.156C243.271 510.156 242.354 509.773 241.672 509.008C240.995 508.237 240.656 507.185 240.656 505.852V505.609C240.656 504.786 240.807 504.055 241.109 503.414C241.411 502.773 241.844 502.276 242.406 501.922C242.974 501.568 243.643 501.391 244.414 501.391C245.362 501.391 246.148 501.674 246.773 502.242C247.404 502.81 247.74 503.547 247.781 504.453H246.414C246.372 503.906 246.164 503.458 245.789 503.109C245.419 502.755 244.961 502.578 244.414 502.578C243.68 502.578 243.109 502.844 242.703 503.375C242.302 503.901 242.102 504.664 242.102 505.664V505.938C242.102 506.911 242.302 507.661 242.703 508.188C243.104 508.714 243.677 508.977 244.422 508.977ZM252.914 510.156C251.768 510.156 250.836 509.781 250.117 509.031C249.398 508.276 249.039 507.268 249.039 506.008V505.742C249.039 504.904 249.198 504.156 249.516 503.5C249.839 502.839 250.286 502.323 250.859 501.953C251.438 501.578 252.062 501.391 252.734 501.391C253.833 501.391 254.688 501.753 255.297 502.477C255.906 503.201 256.211 504.237 256.211 505.586V506.188H250.484C250.505 507.021 250.747 507.695 251.211 508.211C251.68 508.721 252.273 508.977 252.992 508.977C253.503 508.977 253.935 508.872 254.289 508.664C254.643 508.456 254.953 508.18 255.219 507.836L256.102 508.523C255.393 509.612 254.331 510.156 252.914 510.156ZM252.734 502.578C252.151 502.578 251.661 502.792 251.266 503.219C250.87 503.641 250.625 504.234 250.531 505H254.766V504.891C254.724 504.156 254.526 503.589 254.172 503.188C253.818 502.781 253.339 502.578 252.734 502.578ZM261.977 502.844C261.758 502.807 261.521 502.789 261.266 502.789C260.318 502.789 259.674 503.193 259.336 504V510H257.891V501.547H259.297L259.32 502.523C259.794 501.768 260.466 501.391 261.336 501.391C261.617 501.391 261.831 501.427 261.977 501.5V502.844Z" fill="black"/>
<path d="M105.75 691.742H100.82V695.773H106.547V697H99.3203V685.625H106.469V686.859H100.82V690.516H105.75V691.742ZM116.781 693.391C116.641 694.594 116.195 695.523 115.445 696.18C114.701 696.831 113.708 697.156 112.469 697.156C111.125 697.156 110.047 696.674 109.234 695.711C108.427 694.747 108.023 693.458 108.023 691.844V690.75C108.023 689.693 108.211 688.763 108.586 687.961C108.966 687.159 109.503 686.544 110.195 686.117C110.888 685.685 111.69 685.469 112.602 685.469C113.81 685.469 114.779 685.807 115.508 686.484C116.237 687.156 116.661 688.089 116.781 689.281H115.273C115.143 688.375 114.859 687.719 114.422 687.312C113.99 686.906 113.383 686.703 112.602 686.703C111.643 686.703 110.891 687.057 110.344 687.766C109.802 688.474 109.531 689.482 109.531 690.789V691.891C109.531 693.125 109.789 694.107 110.305 694.836C110.82 695.565 111.542 695.93 112.469 695.93C113.302 695.93 113.94 695.742 114.383 695.367C114.831 694.987 115.128 694.328 115.273 693.391H116.781ZM122.188 691.93C120.901 691.56 119.964 691.107 119.375 690.57C118.792 690.029 118.5 689.362 118.5 688.57C118.5 687.674 118.857 686.935 119.57 686.352C120.289 685.763 121.221 685.469 122.367 685.469C123.148 685.469 123.844 685.62 124.453 685.922C125.068 686.224 125.542 686.641 125.875 687.172C126.214 687.703 126.383 688.284 126.383 688.914H124.875C124.875 688.227 124.656 687.688 124.219 687.297C123.781 686.901 123.164 686.703 122.367 686.703C121.628 686.703 121.049 686.867 120.633 687.195C120.221 687.518 120.016 687.969 120.016 688.547C120.016 689.01 120.211 689.404 120.602 689.727C120.997 690.044 121.667 690.336 122.609 690.602C123.557 690.867 124.297 691.161 124.828 691.484C125.365 691.802 125.76 692.174 126.016 692.602C126.276 693.029 126.406 693.531 126.406 694.109C126.406 695.031 126.047 695.771 125.328 696.328C124.609 696.88 123.648 697.156 122.445 697.156C121.664 697.156 120.935 697.008 120.258 696.711C119.581 696.409 119.057 695.997 118.688 695.477C118.323 694.956 118.141 694.365 118.141 693.703H119.648C119.648 694.391 119.901 694.935 120.406 695.336C120.917 695.732 121.596 695.93 122.445 695.93C123.237 695.93 123.844 695.768 124.266 695.445C124.688 695.122 124.898 694.682 124.898 694.125C124.898 693.568 124.703 693.138 124.312 692.836C123.922 692.529 123.214 692.227 122.188 691.93ZM140.672 693.391C140.531 694.594 140.086 695.523 139.336 696.18C138.591 696.831 137.599 697.156 136.359 697.156C135.016 697.156 133.938 696.674 133.125 695.711C132.318 694.747 131.914 693.458 131.914 691.844V690.75C131.914 689.693 132.102 688.763 132.477 687.961C132.857 687.159 133.393 686.544 134.086 686.117C134.779 685.685 135.581 685.469 136.492 685.469C137.701 685.469 138.669 685.807 139.398 686.484C140.128 687.156 140.552 688.089 140.672 689.281H139.164C139.034 688.375 138.75 687.719 138.312 687.312C137.88 686.906 137.273 686.703 136.492 686.703C135.534 686.703 134.781 687.057 134.234 687.766C133.693 688.474 133.422 689.482 133.422 690.789V691.891C133.422 693.125 133.68 694.107 134.195 694.836C134.711 695.565 135.432 695.93 136.359 695.93C137.193 695.93 137.831 695.742 138.273 695.367C138.721 694.987 139.018 694.328 139.164 693.391H140.672ZM144.07 697H142.625V685H144.07V697ZM151.609 696.164C151.047 696.826 150.221 697.156 149.133 697.156C148.232 697.156 147.544 696.896 147.07 696.375C146.602 695.849 146.365 695.073 146.359 694.047V688.547H147.805V694.008C147.805 695.289 148.326 695.93 149.367 695.93C150.471 695.93 151.206 695.518 151.57 694.695V688.547H153.016V697H151.641L151.609 696.164ZM160.141 694.758C160.141 694.367 159.992 694.065 159.695 693.852C159.404 693.633 158.891 693.445 158.156 693.289C157.427 693.133 156.846 692.945 156.414 692.727C155.987 692.508 155.669 692.247 155.461 691.945C155.258 691.643 155.156 691.284 155.156 690.867C155.156 690.174 155.448 689.589 156.031 689.109C156.62 688.63 157.37 688.391 158.281 688.391C159.24 688.391 160.016 688.638 160.609 689.133C161.208 689.628 161.508 690.26 161.508 691.031H160.055C160.055 690.635 159.885 690.294 159.547 690.008C159.214 689.721 158.792 689.578 158.281 689.578C157.755 689.578 157.344 689.693 157.047 689.922C156.75 690.151 156.602 690.451 156.602 690.82C156.602 691.169 156.74 691.432 157.016 691.609C157.292 691.786 157.789 691.956 158.508 692.117C159.232 692.279 159.818 692.471 160.266 692.695C160.714 692.919 161.044 693.19 161.258 693.508C161.477 693.82 161.586 694.203 161.586 694.656C161.586 695.411 161.284 696.018 160.68 696.477C160.076 696.93 159.292 697.156 158.328 697.156C157.651 697.156 157.052 697.036 156.531 696.797C156.01 696.557 155.602 696.224 155.305 695.797C155.013 695.365 154.867 694.898 154.867 694.398H156.312C156.339 694.883 156.531 695.268 156.891 695.555C157.255 695.836 157.734 695.977 158.328 695.977C158.875 695.977 159.312 695.867 159.641 695.648C159.974 695.424 160.141 695.128 160.141 694.758ZM165.43 686.5V688.547H167.008V689.664H165.43V694.906C165.43 695.245 165.5 695.5 165.641 695.672C165.781 695.839 166.021 695.922 166.359 695.922C166.526 695.922 166.755 695.891 167.047 695.828V697C166.667 697.104 166.297 697.156 165.938 697.156C165.292 697.156 164.805 696.961 164.477 696.57C164.148 696.18 163.984 695.625 163.984 694.906V689.664H162.445V688.547H163.984V686.5H165.43ZM172.211 697.156C171.065 697.156 170.133 696.781 169.414 696.031C168.695 695.276 168.336 694.268 168.336 693.008V692.742C168.336 691.904 168.495 691.156 168.812 690.5C169.135 689.839 169.583 689.323 170.156 688.953C170.734 688.578 171.359 688.391 172.031 688.391C173.13 688.391 173.984 688.753 174.594 689.477C175.203 690.201 175.508 691.237 175.508 692.586V693.188H169.781C169.802 694.021 170.044 694.695 170.508 695.211C170.977 695.721 171.57 695.977 172.289 695.977C172.799 695.977 173.232 695.872 173.586 695.664C173.94 695.456 174.25 695.18 174.516 694.836L175.398 695.523C174.69 696.612 173.628 697.156 172.211 697.156ZM172.031 689.578C171.448 689.578 170.958 689.792 170.562 690.219C170.167 690.641 169.922 691.234 169.828 692H174.062V691.891C174.021 691.156 173.823 690.589 173.469 690.188C173.115 689.781 172.635 689.578 172.031 689.578ZM181.273 689.844C181.055 689.807 180.818 689.789 180.562 689.789C179.615 689.789 178.971 690.193 178.633 691V697H177.188V688.547H178.594L178.617 689.523C179.091 688.768 179.763 688.391 180.633 688.391C180.914 688.391 181.128 688.427 181.273 688.5V689.844ZM194.062 695.008L195.688 688.547H197.133L194.672 697H193.5L191.445 690.594L189.445 697H188.273L185.82 688.547H187.258L188.922 694.875L190.891 688.547H192.055L194.062 695.008ZM200.18 697H198.734V688.547H200.18V697ZM198.617 686.305C198.617 686.07 198.688 685.872 198.828 685.711C198.974 685.549 199.188 685.469 199.469 685.469C199.75 685.469 199.964 685.549 200.109 685.711C200.255 685.872 200.328 686.07 200.328 686.305C200.328 686.539 200.255 686.734 200.109 686.891C199.964 687.047 199.75 687.125 199.469 687.125C199.188 687.125 198.974 687.047 198.828 686.891C198.688 686.734 198.617 686.539 198.617 686.305ZM204.461 686.5V688.547H206.039V689.664H204.461V694.906C204.461 695.245 204.531 695.5 204.672 695.672C204.812 695.839 205.052 695.922 205.391 695.922C205.557 695.922 205.786 695.891 206.078 695.828V697C205.698 697.104 205.328 697.156 204.969 697.156C204.323 697.156 203.836 696.961 203.508 696.57C203.18 696.18 203.016 695.625 203.016 694.906V689.664H201.477V688.547H203.016V686.5H204.461ZM209.18 689.57C209.82 688.784 210.654 688.391 211.68 688.391C213.466 688.391 214.367 689.398 214.383 691.414V697H212.938V691.406C212.932 690.797 212.792 690.346 212.516 690.055C212.245 689.763 211.82 689.617 211.242 689.617C210.773 689.617 210.362 689.742 210.008 689.992C209.654 690.242 209.378 690.57 209.18 690.977V697H207.734V685H209.18V689.57ZM224.094 691.93C222.807 691.56 221.87 691.107 221.281 690.57C220.698 690.029 220.406 689.362 220.406 688.57C220.406 687.674 220.763 686.935 221.477 686.352C222.195 685.763 223.128 685.469 224.273 685.469C225.055 685.469 225.75 685.62 226.359 685.922C226.974 686.224 227.448 686.641 227.781 687.172C228.12 687.703 228.289 688.284 228.289 688.914H226.781C226.781 688.227 226.562 687.688 226.125 687.297C225.688 686.901 225.07 686.703 224.273 686.703C223.534 686.703 222.956 686.867 222.539 687.195C222.128 687.518 221.922 687.969 221.922 688.547C221.922 689.01 222.117 689.404 222.508 689.727C222.904 690.044 223.573 690.336 224.516 690.602C225.464 690.867 226.203 691.161 226.734 691.484C227.271 691.802 227.667 692.174 227.922 692.602C228.182 693.029 228.312 693.531 228.312 694.109C228.312 695.031 227.953 695.771 227.234 696.328C226.516 696.88 225.555 697.156 224.352 697.156C223.57 697.156 222.841 697.008 222.164 696.711C221.487 696.409 220.964 695.997 220.594 695.477C220.229 694.956 220.047 694.365 220.047 693.703H221.555C221.555 694.391 221.807 694.935 222.312 695.336C222.823 695.732 223.503 695.93 224.352 695.93C225.143 695.93 225.75 695.768 226.172 695.445C226.594 695.122 226.805 694.682 226.805 694.125C226.805 693.568 226.609 693.138 226.219 692.836C225.828 692.529 225.12 692.227 224.094 691.93ZM233.523 697.156C232.378 697.156 231.445 696.781 230.727 696.031C230.008 695.276 229.648 694.268 229.648 693.008V692.742C229.648 691.904 229.807 691.156 230.125 690.5C230.448 689.839 230.896 689.323 231.469 688.953C232.047 688.578 232.672 688.391 233.344 688.391C234.443 688.391 235.297 688.753 235.906 689.477C236.516 690.201 236.82 691.237 236.82 692.586V693.188H231.094C231.115 694.021 231.357 694.695 231.82 695.211C232.289 695.721 232.883 695.977 233.602 695.977C234.112 695.977 234.544 695.872 234.898 695.664C235.253 695.456 235.562 695.18 235.828 694.836L236.711 695.523C236.003 696.612 234.94 697.156 233.523 697.156ZM233.344 689.578C232.76 689.578 232.271 689.792 231.875 690.219C231.479 690.641 231.234 691.234 231.141 692H235.375V691.891C235.333 691.156 235.135 690.589 234.781 690.188C234.427 689.781 233.948 689.578 233.344 689.578ZM242.586 689.844C242.367 689.807 242.13 689.789 241.875 689.789C240.927 689.789 240.284 690.193 239.945 691V697H238.5V688.547H239.906L239.93 689.523C240.404 688.768 241.076 688.391 241.945 688.391C242.227 688.391 242.44 688.427 242.586 688.5V689.844ZM246.852 695.039L248.945 688.547H250.422L247.391 697H246.289L243.227 688.547H244.703L246.852 695.039ZM253.383 697H251.938V688.547H253.383V697ZM251.82 686.305C251.82 686.07 251.891 685.872 252.031 685.711C252.177 685.549 252.391 685.469 252.672 685.469C252.953 685.469 253.167 685.549 253.312 685.711C253.458 685.872 253.531 686.07 253.531 686.305C253.531 686.539 253.458 686.734 253.312 686.891C253.167 687.047 252.953 687.125 252.672 687.125C252.391 687.125 252.177 687.047 252.031 686.891C251.891 686.734 251.82 686.539 251.82 686.305ZM259.094 695.977C259.609 695.977 260.06 695.82 260.445 695.508C260.831 695.195 261.044 694.805 261.086 694.336H262.453C262.427 694.82 262.26 695.281 261.953 695.719C261.646 696.156 261.234 696.505 260.719 696.766C260.208 697.026 259.667 697.156 259.094 697.156C257.943 697.156 257.026 696.773 256.344 696.008C255.667 695.237 255.328 694.185 255.328 692.852V692.609C255.328 691.786 255.479 691.055 255.781 690.414C256.083 689.773 256.516 689.276 257.078 688.922C257.646 688.568 258.315 688.391 259.086 688.391C260.034 688.391 260.82 688.674 261.445 689.242C262.076 689.81 262.411 690.547 262.453 691.453H261.086C261.044 690.906 260.836 690.458 260.461 690.109C260.091 689.755 259.633 689.578 259.086 689.578C258.352 689.578 257.781 689.844 257.375 690.375C256.974 690.901 256.773 691.664 256.773 692.664V692.938C256.773 693.911 256.974 694.661 257.375 695.188C257.776 695.714 258.349 695.977 259.094 695.977ZM267.586 697.156C266.44 697.156 265.508 696.781 264.789 696.031C264.07 695.276 263.711 694.268 263.711 693.008V692.742C263.711 691.904 263.87 691.156 264.188 690.5C264.51 689.839 264.958 689.323 265.531 688.953C266.109 688.578 266.734 688.391 267.406 688.391C268.505 688.391 269.359 688.753 269.969 689.477C270.578 690.201 270.883 691.237 270.883 692.586V693.188H265.156C265.177 694.021 265.419 694.695 265.883 695.211C266.352 695.721 266.945 695.977 267.664 695.977C268.174 695.977 268.607 695.872 268.961 695.664C269.315 695.456 269.625 695.18 269.891 694.836L270.773 695.523C270.065 696.612 269.003 697.156 267.586 697.156ZM267.406 689.578C266.823 689.578 266.333 689.792 265.938 690.219C265.542 690.641 265.297 691.234 265.203 692H269.438V691.891C269.396 691.156 269.198 690.589 268.844 690.188C268.49 689.781 268.01 689.578 267.406 689.578Z" fill="black"/>
<path d="M29.8203 167.547V172H28.3203V160.625H32.5156C33.7604 160.625 34.7344 160.943 35.4375 161.578C36.1458 162.214 36.5 163.055 36.5 164.102C36.5 165.206 36.1536 166.057 35.4609 166.656C34.7734 167.25 33.7865 167.547 32.5 167.547H29.8203ZM29.8203 166.32H32.5156C33.3177 166.32 33.9323 166.133 34.3594 165.758C34.7865 165.378 35 164.831 35 164.117C35 163.44 34.7865 162.898 34.3594 162.492C33.9323 162.086 33.3464 161.875 32.6016 161.859H29.8203V166.32ZM43.4062 171.164C42.8438 171.826 42.0182 172.156 40.9297 172.156C40.0286 172.156 39.3411 171.896 38.8672 171.375C38.3984 170.849 38.1615 170.073 38.1562 169.047V163.547H39.6016V169.008C39.6016 170.289 40.1224 170.93 41.1641 170.93C42.2682 170.93 43.0026 170.518 43.3672 169.695V163.547H44.8125V172H43.4375L43.4062 171.164ZM54.1719 167.867C54.1719 169.159 53.875 170.198 53.2812 170.984C52.6875 171.766 51.8906 172.156 50.8906 172.156C49.8229 172.156 48.9974 171.779 48.4141 171.023L48.3438 172H47.0156V160H48.4609V164.477C49.0443 163.753 49.849 163.391 50.875 163.391C51.901 163.391 52.7057 163.779 53.2891 164.555C53.8776 165.331 54.1719 166.393 54.1719 167.742V167.867ZM52.7266 167.703C52.7266 166.719 52.5365 165.958 52.1562 165.422C51.776 164.885 51.2292 164.617 50.5156 164.617C49.5625 164.617 48.8776 165.06 48.4609 165.945V169.602C48.9036 170.487 49.5938 170.93 50.5312 170.93C51.224 170.93 51.763 170.661 52.1484 170.125C52.5339 169.589 52.7266 168.781 52.7266 167.703ZM57.5703 172H56.125V160H57.5703V172ZM61.4609 172H60.0156V163.547H61.4609V172ZM59.8984 161.305C59.8984 161.07 59.9688 160.872 60.1094 160.711C60.2552 160.549 60.4688 160.469 60.75 160.469C61.0312 160.469 61.2448 160.549 61.3906 160.711C61.5365 160.872 61.6094 161.07 61.6094 161.305C61.6094 161.539 61.5365 161.734 61.3906 161.891C61.2448 162.047 61.0312 162.125 60.75 162.125C60.4688 162.125 60.2552 162.047 60.1094 161.891C59.9688 161.734 59.8984 161.539 59.8984 161.305ZM67.1719 170.977C67.6875 170.977 68.138 170.82 68.5234 170.508C68.9089 170.195 69.1224 169.805 69.1641 169.336H70.5312C70.5052 169.82 70.3385 170.281 70.0312 170.719C69.724 171.156 69.3125 171.505 68.7969 171.766C68.2865 172.026 67.7448 172.156 67.1719 172.156C66.0208 172.156 65.1042 171.773 64.4219 171.008C63.7448 170.237 63.4062 169.185 63.4062 167.852V167.609C63.4062 166.786 63.5573 166.055 63.8594 165.414C64.1615 164.773 64.5938 164.276 65.1562 163.922C65.724 163.568 66.3932 163.391 67.1641 163.391C68.112 163.391 68.8984 163.674 69.5234 164.242C70.1536 164.81 70.4896 165.547 70.5312 166.453H69.1641C69.1224 165.906 68.9141 165.458 68.5391 165.109C68.1693 164.755 67.7109 164.578 67.1641 164.578C66.4297 164.578 65.8594 164.844 65.4531 165.375C65.0521 165.901 64.8516 166.664 64.8516 167.664V167.938C64.8516 168.911 65.0521 169.661 65.4531 170.188C65.8542 170.714 66.4271 170.977 67.1719 170.977ZM79.7031 166.93C78.4167 166.56 77.4792 166.107 76.8906 165.57C76.3073 165.029 76.0156 164.362 76.0156 163.57C76.0156 162.674 76.3724 161.935 77.0859 161.352C77.8047 160.763 78.737 160.469 79.8828 160.469C80.6641 160.469 81.3594 160.62 81.9688 160.922C82.5833 161.224 83.0573 161.641 83.3906 162.172C83.7292 162.703 83.8984 163.284 83.8984 163.914H82.3906C82.3906 163.227 82.1719 162.688 81.7344 162.297C81.2969 161.901 80.6797 161.703 79.8828 161.703C79.1432 161.703 78.5651 161.867 78.1484 162.195C77.737 162.518 77.5312 162.969 77.5312 163.547C77.5312 164.01 77.7266 164.404 78.1172 164.727C78.513 165.044 79.1823 165.336 80.125 165.602C81.0729 165.867 81.8125 166.161 82.3438 166.484C82.8802 166.802 83.276 167.174 83.5312 167.602C83.7917 168.029 83.9219 168.531 83.9219 169.109C83.9219 170.031 83.5625 170.771 82.8438 171.328C82.125 171.88 81.1641 172.156 79.9609 172.156C79.1797 172.156 78.4505 172.008 77.7734 171.711C77.0964 171.409 76.5729 170.997 76.2031 170.477C75.8385 169.956 75.6562 169.365 75.6562 168.703H77.1641C77.1641 169.391 77.4167 169.935 77.9219 170.336C78.4323 170.732 79.112 170.93 79.9609 170.93C80.7526 170.93 81.3594 170.768 81.7812 170.445C82.2031 170.122 82.4141 169.682 82.4141 169.125C82.4141 168.568 82.2188 168.138 81.8281 167.836C81.4375 167.529 80.7292 167.227 79.7031 166.93ZM90.8438 171.164C90.2812 171.826 89.4557 172.156 88.3672 172.156C87.4661 172.156 86.7786 171.896 86.3047 171.375C85.8359 170.849 85.599 170.073 85.5938 169.047V163.547H87.0391V169.008C87.0391 170.289 87.5599 170.93 88.6016 170.93C89.7057 170.93 90.4401 170.518 90.8047 169.695V163.547H92.25V172H90.875L90.8438 171.164ZM101.609 167.867C101.609 169.159 101.312 170.198 100.719 170.984C100.125 171.766 99.3281 172.156 98.3281 172.156C97.2604 172.156 96.4349 171.779 95.8516 171.023L95.7812 172H94.4531V160H95.8984V164.477C96.4818 163.753 97.2865 163.391 98.3125 163.391C99.3385 163.391 100.143 163.779 100.727 164.555C101.315 165.331 101.609 166.393 101.609 167.742V167.867ZM100.164 167.703C100.164 166.719 99.974 165.958 99.5938 165.422C99.2135 164.885 98.6667 164.617 97.9531 164.617C97 164.617 96.3151 165.06 95.8984 165.945V169.602C96.3411 170.487 97.0312 170.93 97.9688 170.93C98.6615 170.93 99.2005 170.661 99.5859 170.125C99.9714 169.589 100.164 168.781 100.164 167.703ZM104.805 163.547L104.852 164.609C105.497 163.797 106.341 163.391 107.383 163.391C109.169 163.391 110.07 164.398 110.086 166.414V172H108.641V166.406C108.635 165.797 108.495 165.346 108.219 165.055C107.948 164.763 107.523 164.617 106.945 164.617C106.477 164.617 106.065 164.742 105.711 164.992C105.357 165.242 105.081 165.57 104.883 165.977V172H103.438V163.547H104.805ZM115.773 172.156C114.628 172.156 113.695 171.781 112.977 171.031C112.258 170.276 111.898 169.268 111.898 168.008V167.742C111.898 166.904 112.057 166.156 112.375 165.5C112.698 164.839 113.146 164.323 113.719 163.953C114.297 163.578 114.922 163.391 115.594 163.391C116.693 163.391 117.547 163.753 118.156 164.477C118.766 165.201 119.07 166.237 119.07 167.586V168.188H113.344C113.365 169.021 113.607 169.695 114.07 170.211C114.539 170.721 115.133 170.977 115.852 170.977C116.362 170.977 116.794 170.872 117.148 170.664C117.503 170.456 117.812 170.18 118.078 169.836L118.961 170.523C118.253 171.612 117.19 172.156 115.773 172.156ZM115.594 164.578C115.01 164.578 114.521 164.792 114.125 165.219C113.729 165.641 113.484 166.234 113.391 167H117.625V166.891C117.583 166.156 117.385 165.589 117.031 165.188C116.677 164.781 116.198 164.578 115.594 164.578ZM122.711 161.5V163.547H124.289V164.664H122.711V169.906C122.711 170.245 122.781 170.5 122.922 170.672C123.062 170.839 123.302 170.922 123.641 170.922C123.807 170.922 124.036 170.891 124.328 170.828V172C123.948 172.104 123.578 172.156 123.219 172.156C122.573 172.156 122.086 171.961 121.758 171.57C121.43 171.18 121.266 170.625 121.266 169.906V164.664H119.727V163.547H121.266V161.5H122.711Z" fill="black"/>
<path d="M533.82 168.547V173H532.32V161.625H536.516C537.76 161.625 538.734 161.943 539.438 162.578C540.146 163.214 540.5 164.055 540.5 165.102C540.5 166.206 540.154 167.057 539.461 167.656C538.773 168.25 537.786 168.547 536.5 168.547H533.82ZM533.82 167.32H536.516C537.318 167.32 537.932 167.133 538.359 166.758C538.786 166.378 539 165.831 539 165.117C539 164.44 538.786 163.898 538.359 163.492C537.932 163.086 537.346 162.875 536.602 162.859H533.82V167.32ZM546.273 165.844C546.055 165.807 545.818 165.789 545.562 165.789C544.615 165.789 543.971 166.193 543.633 167V173H542.188V164.547H543.594L543.617 165.523C544.091 164.768 544.763 164.391 545.633 164.391C545.914 164.391 546.128 164.427 546.273 164.5V165.844ZM549.18 173H547.734V164.547H549.18V173ZM547.617 162.305C547.617 162.07 547.688 161.872 547.828 161.711C547.974 161.549 548.188 161.469 548.469 161.469C548.75 161.469 548.964 161.549 549.109 161.711C549.255 161.872 549.328 162.07 549.328 162.305C549.328 162.539 549.255 162.734 549.109 162.891C548.964 163.047 548.75 163.125 548.469 163.125C548.188 163.125 547.974 163.047 547.828 162.891C547.688 162.734 547.617 162.539 547.617 162.305ZM554.289 171.039L556.383 164.547H557.859L554.828 173H553.727L550.664 164.547H552.141L554.289 171.039ZM564.344 173C564.26 172.833 564.193 172.536 564.141 172.109C563.469 172.807 562.667 173.156 561.734 173.156C560.901 173.156 560.216 172.922 559.68 172.453C559.148 171.979 558.883 171.38 558.883 170.656C558.883 169.776 559.216 169.094 559.883 168.609C560.555 168.12 561.497 167.875 562.711 167.875H564.117V167.211C564.117 166.706 563.966 166.305 563.664 166.008C563.362 165.706 562.917 165.555 562.328 165.555C561.812 165.555 561.38 165.685 561.031 165.945C560.682 166.206 560.508 166.521 560.508 166.891H559.055C559.055 166.469 559.203 166.062 559.5 165.672C559.802 165.276 560.208 164.964 560.719 164.734C561.234 164.505 561.799 164.391 562.414 164.391C563.388 164.391 564.151 164.635 564.703 165.125C565.255 165.609 565.542 166.279 565.562 167.133V171.023C565.562 171.799 565.661 172.417 565.859 172.875V173H564.344ZM561.945 171.898C562.398 171.898 562.828 171.781 563.234 171.547C563.641 171.312 563.935 171.008 564.117 170.633V168.898H562.984C561.214 168.898 560.328 169.417 560.328 170.453C560.328 170.906 560.479 171.26 560.781 171.516C561.083 171.771 561.471 171.898 561.945 171.898ZM569.789 162.5V164.547H571.367V165.664H569.789V170.906C569.789 171.245 569.859 171.5 570 171.672C570.141 171.839 570.38 171.922 570.719 171.922C570.885 171.922 571.115 171.891 571.406 171.828V173C571.026 173.104 570.656 173.156 570.297 173.156C569.651 173.156 569.164 172.961 568.836 172.57C568.508 172.18 568.344 171.625 568.344 170.906V165.664H566.805V164.547H568.344V162.5H569.789ZM576.57 173.156C575.424 173.156 574.492 172.781 573.773 172.031C573.055 171.276 572.695 170.268 572.695 169.008V168.742C572.695 167.904 572.854 167.156 573.172 166.5C573.495 165.839 573.943 165.323 574.516 164.953C575.094 164.578 575.719 164.391 576.391 164.391C577.49 164.391 578.344 164.753 578.953 165.477C579.562 166.201 579.867 167.237 579.867 168.586V169.188H574.141C574.161 170.021 574.404 170.695 574.867 171.211C575.336 171.721 575.93 171.977 576.648 171.977C577.159 171.977 577.591 171.872 577.945 171.664C578.299 171.456 578.609 171.18 578.875 170.836L579.758 171.523C579.049 172.612 577.987 173.156 576.57 173.156ZM576.391 165.578C575.807 165.578 575.318 165.792 574.922 166.219C574.526 166.641 574.281 167.234 574.188 168H578.422V167.891C578.38 167.156 578.182 166.589 577.828 166.188C577.474 165.781 576.995 165.578 576.391 165.578ZM589.094 167.93C587.807 167.56 586.87 167.107 586.281 166.57C585.698 166.029 585.406 165.362 585.406 164.57C585.406 163.674 585.763 162.935 586.477 162.352C587.195 161.763 588.128 161.469 589.273 161.469C590.055 161.469 590.75 161.62 591.359 161.922C591.974 162.224 592.448 162.641 592.781 163.172C593.12 163.703 593.289 164.284 593.289 164.914H591.781C591.781 164.227 591.562 163.688 591.125 163.297C590.688 162.901 590.07 162.703 589.273 162.703C588.534 162.703 587.956 162.867 587.539 163.195C587.128 163.518 586.922 163.969 586.922 164.547C586.922 165.01 587.117 165.404 587.508 165.727C587.904 166.044 588.573 166.336 589.516 166.602C590.464 166.867 591.203 167.161 591.734 167.484C592.271 167.802 592.667 168.174 592.922 168.602C593.182 169.029 593.312 169.531 593.312 170.109C593.312 171.031 592.953 171.771 592.234 172.328C591.516 172.88 590.555 173.156 589.352 173.156C588.57 173.156 587.841 173.008 587.164 172.711C586.487 172.409 585.964 171.997 585.594 171.477C585.229 170.956 585.047 170.365 585.047 169.703H586.555C586.555 170.391 586.807 170.935 587.312 171.336C587.823 171.732 588.503 171.93 589.352 171.93C590.143 171.93 590.75 171.768 591.172 171.445C591.594 171.122 591.805 170.682 591.805 170.125C591.805 169.568 591.609 169.138 591.219 168.836C590.828 168.529 590.12 168.227 589.094 167.93ZM600.234 172.164C599.672 172.826 598.846 173.156 597.758 173.156C596.857 173.156 596.169 172.896 595.695 172.375C595.227 171.849 594.99 171.073 594.984 170.047V164.547H596.43V170.008C596.43 171.289 596.951 171.93 597.992 171.93C599.096 171.93 599.831 171.518 600.195 170.695V164.547H601.641V173H600.266L600.234 172.164ZM611 168.867C611 170.159 610.703 171.198 610.109 171.984C609.516 172.766 608.719 173.156 607.719 173.156C606.651 173.156 605.826 172.779 605.242 172.023L605.172 173H603.844V161H605.289V165.477C605.872 164.753 606.677 164.391 607.703 164.391C608.729 164.391 609.534 164.779 610.117 165.555C610.706 166.331 611 167.393 611 168.742V168.867ZM609.555 168.703C609.555 167.719 609.365 166.958 608.984 166.422C608.604 165.885 608.057 165.617 607.344 165.617C606.391 165.617 605.706 166.06 605.289 166.945V170.602C605.732 171.487 606.422 171.93 607.359 171.93C608.052 171.93 608.591 171.661 608.977 171.125C609.362 170.589 609.555 169.781 609.555 168.703ZM614.195 164.547L614.242 165.609C614.888 164.797 615.732 164.391 616.773 164.391C618.56 164.391 619.461 165.398 619.477 167.414V173H618.031V167.406C618.026 166.797 617.885 166.346 617.609 166.055C617.339 165.763 616.914 165.617 616.336 165.617C615.867 165.617 615.456 165.742 615.102 165.992C614.747 166.242 614.471 166.57 614.273 166.977V173H612.828V164.547H614.195ZM625.164 173.156C624.018 173.156 623.086 172.781 622.367 172.031C621.648 171.276 621.289 170.268 621.289 169.008V168.742C621.289 167.904 621.448 167.156 621.766 166.5C622.089 165.839 622.536 165.323 623.109 164.953C623.688 164.578 624.312 164.391 624.984 164.391C626.083 164.391 626.938 164.753 627.547 165.477C628.156 166.201 628.461 167.237 628.461 168.586V169.188H622.734C622.755 170.021 622.997 170.695 623.461 171.211C623.93 171.721 624.523 171.977 625.242 171.977C625.753 171.977 626.185 171.872 626.539 171.664C626.893 171.456 627.203 171.18 627.469 170.836L628.352 171.523C627.643 172.612 626.581 173.156 625.164 173.156ZM624.984 165.578C624.401 165.578 623.911 165.792 623.516 166.219C623.12 166.641 622.875 167.234 622.781 168H627.016V167.891C626.974 167.156 626.776 166.589 626.422 166.188C626.068 165.781 625.589 165.578 624.984 165.578ZM632.102 162.5V164.547H633.68V165.664H632.102V170.906C632.102 171.245 632.172 171.5 632.312 171.672C632.453 171.839 632.693 171.922 633.031 171.922C633.198 171.922 633.427 171.891 633.719 171.828V173C633.339 173.104 632.969 173.156 632.609 173.156C631.964 173.156 631.477 172.961 631.148 172.57C630.82 172.18 630.656 171.625 630.656 170.906V165.664H629.117V164.547H630.656V162.5H632.102Z" fill="black"/>
<path d="M725.672 500.93C724.385 500.56 723.448 500.107 722.859 499.57C722.276 499.029 721.984 498.362 721.984 497.57C721.984 496.674 722.341 495.935 723.055 495.352C723.773 494.763 724.706 494.469 725.852 494.469C726.633 494.469 727.328 494.62 727.938 494.922C728.552 495.224 729.026 495.641 729.359 496.172C729.698 496.703 729.867 497.284 729.867 497.914H728.359C728.359 497.227 728.141 496.688 727.703 496.297C727.266 495.901 726.648 495.703 725.852 495.703C725.112 495.703 724.534 495.867 724.117 496.195C723.706 496.518 723.5 496.969 723.5 497.547C723.5 498.01 723.695 498.404 724.086 498.727C724.482 499.044 725.151 499.336 726.094 499.602C727.042 499.867 727.781 500.161 728.312 500.484C728.849 500.802 729.245 501.174 729.5 501.602C729.76 502.029 729.891 502.531 729.891 503.109C729.891 504.031 729.531 504.771 728.812 505.328C728.094 505.88 727.133 506.156 725.93 506.156C725.148 506.156 724.419 506.008 723.742 505.711C723.065 505.409 722.542 504.997 722.172 504.477C721.807 503.956 721.625 503.365 721.625 502.703H723.133C723.133 503.391 723.385 503.935 723.891 504.336C724.401 504.732 725.081 504.93 725.93 504.93C726.721 504.93 727.328 504.768 727.75 504.445C728.172 504.122 728.383 503.682 728.383 503.125C728.383 502.568 728.188 502.138 727.797 501.836C727.406 501.529 726.698 501.227 725.672 500.93ZM733.547 499.609H734.633C735.315 499.599 735.852 499.419 736.242 499.07C736.633 498.721 736.828 498.25 736.828 497.656C736.828 496.323 736.164 495.656 734.836 495.656C734.211 495.656 733.711 495.836 733.336 496.195C732.966 496.549 732.781 497.021 732.781 497.609H731.336C731.336 496.708 731.664 495.961 732.32 495.367C732.982 494.768 733.82 494.469 734.836 494.469C735.909 494.469 736.75 494.753 737.359 495.32C737.969 495.888 738.273 496.677 738.273 497.688C738.273 498.182 738.112 498.661 737.789 499.125C737.471 499.589 737.036 499.935 736.484 500.164C737.109 500.362 737.591 500.69 737.93 501.148C738.273 501.607 738.445 502.167 738.445 502.828C738.445 503.849 738.112 504.659 737.445 505.258C736.779 505.857 735.911 506.156 734.844 506.156C733.776 506.156 732.906 505.867 732.234 505.289C731.568 504.711 731.234 503.948 731.234 503H732.688C732.688 503.599 732.883 504.078 733.273 504.438C733.664 504.797 734.188 504.977 734.844 504.977C735.542 504.977 736.076 504.794 736.445 504.43C736.815 504.065 737 503.542 737 502.859C737 502.198 736.797 501.69 736.391 501.336C735.984 500.982 735.398 500.799 734.633 500.789H733.547V499.609ZM744.773 506V494.625H748.492C749.727 494.625 750.654 494.88 751.273 495.391C751.898 495.901 752.211 496.656 752.211 497.656C752.211 498.188 752.06 498.659 751.758 499.07C751.456 499.477 751.044 499.792 750.523 500.016C751.138 500.188 751.622 500.516 751.977 501C752.336 501.479 752.516 502.052 752.516 502.719C752.516 503.74 752.185 504.542 751.523 505.125C750.862 505.708 749.927 506 748.719 506H744.773ZM746.273 500.68V504.773H748.75C749.448 504.773 749.997 504.594 750.398 504.234C750.805 503.87 751.008 503.37 751.008 502.734C751.008 501.365 750.263 500.68 748.773 500.68H746.273ZM746.273 499.477H748.539C749.195 499.477 749.719 499.312 750.109 498.984C750.505 498.656 750.703 498.211 750.703 497.648C750.703 497.023 750.521 496.57 750.156 496.289C749.792 496.003 749.237 495.859 748.492 495.859H746.273V499.477ZM759.734 505.164C759.172 505.826 758.346 506.156 757.258 506.156C756.357 506.156 755.669 505.896 755.195 505.375C754.727 504.849 754.49 504.073 754.484 503.047V497.547H755.93V503.008C755.93 504.289 756.451 504.93 757.492 504.93C758.596 504.93 759.331 504.518 759.695 503.695V497.547H761.141V506H759.766L759.734 505.164ZM766.734 504.977C767.25 504.977 767.701 504.82 768.086 504.508C768.471 504.195 768.685 503.805 768.727 503.336H770.094C770.068 503.82 769.901 504.281 769.594 504.719C769.286 505.156 768.875 505.505 768.359 505.766C767.849 506.026 767.307 506.156 766.734 506.156C765.583 506.156 764.667 505.773 763.984 505.008C763.307 504.237 762.969 503.185 762.969 501.852V501.609C762.969 500.786 763.12 500.055 763.422 499.414C763.724 498.773 764.156 498.276 764.719 497.922C765.286 497.568 765.956 497.391 766.727 497.391C767.674 497.391 768.461 497.674 769.086 498.242C769.716 498.81 770.052 499.547 770.094 500.453H768.727C768.685 499.906 768.477 499.458 768.102 499.109C767.732 498.755 767.273 498.578 766.727 498.578C765.992 498.578 765.422 498.844 765.016 499.375C764.615 499.901 764.414 500.664 764.414 501.664V501.938C764.414 502.911 764.615 503.661 765.016 504.188C765.417 504.714 765.99 504.977 766.734 504.977ZM774.078 502.086L773.172 503.031V506H771.727V494H773.172V501.258L773.945 500.328L776.578 497.547H778.336L775.047 501.078L778.719 506H777.023L774.078 502.086ZM783.18 506.156C782.034 506.156 781.102 505.781 780.383 505.031C779.664 504.276 779.305 503.268 779.305 502.008V501.742C779.305 500.904 779.464 500.156 779.781 499.5C780.104 498.839 780.552 498.323 781.125 497.953C781.703 497.578 782.328 497.391 783 497.391C784.099 497.391 784.953 497.753 785.562 498.477C786.172 499.201 786.477 500.237 786.477 501.586V502.188H780.75C780.771 503.021 781.013 503.695 781.477 504.211C781.945 504.721 782.539 504.977 783.258 504.977C783.768 504.977 784.201 504.872 784.555 504.664C784.909 504.456 785.219 504.18 785.484 503.836L786.367 504.523C785.659 505.612 784.596 506.156 783.18 506.156ZM783 498.578C782.417 498.578 781.927 498.792 781.531 499.219C781.135 499.641 780.891 500.234 780.797 501H785.031V500.891C784.99 500.156 784.792 499.589 784.438 499.188C784.083 498.781 783.604 498.578 783 498.578ZM790.117 495.5V497.547H791.695V498.664H790.117V503.906C790.117 504.245 790.188 504.5 790.328 504.672C790.469 504.839 790.708 504.922 791.047 504.922C791.214 504.922 791.443 504.891 791.734 504.828V506C791.354 506.104 790.984 506.156 790.625 506.156C789.979 506.156 789.492 505.961 789.164 505.57C788.836 505.18 788.672 504.625 788.672 503.906V498.664H787.133V497.547H788.672V495.5H790.117Z" fill="black"/>
<path d="M539.492 501.398H536.82V506H535.312V494.625H539.078C540.359 494.625 541.344 494.917 542.031 495.5C542.724 496.083 543.07 496.932 543.07 498.047C543.07 498.755 542.878 499.372 542.492 499.898C542.112 500.424 541.581 500.818 540.898 501.078L543.57 505.906V506H541.961L539.492 501.398ZM536.82 500.172H539.125C539.87 500.172 540.461 499.979 540.898 499.594C541.341 499.208 541.562 498.693 541.562 498.047C541.562 497.344 541.352 496.805 540.93 496.43C540.513 496.055 539.909 495.865 539.117 495.859H536.82V500.172ZM545.18 506V494.625H548.391C549.38 494.625 550.255 494.844 551.016 495.281C551.776 495.719 552.362 496.341 552.773 497.148C553.19 497.956 553.401 498.883 553.406 499.93V500.656C553.406 501.729 553.198 502.669 552.781 503.477C552.37 504.284 551.779 504.904 551.008 505.336C550.242 505.768 549.349 505.99 548.328 506H545.18ZM546.68 495.859V504.773H548.258C549.414 504.773 550.312 504.414 550.953 503.695C551.599 502.977 551.922 501.953 551.922 500.625V499.961C551.922 498.669 551.617 497.667 551.008 496.953C550.404 496.234 549.544 495.87 548.43 495.859H546.68ZM559.031 500.93C557.745 500.56 556.807 500.107 556.219 499.57C555.635 499.029 555.344 498.362 555.344 497.57C555.344 496.674 555.701 495.935 556.414 495.352C557.133 494.763 558.065 494.469 559.211 494.469C559.992 494.469 560.688 494.62 561.297 494.922C561.911 495.224 562.385 495.641 562.719 496.172C563.057 496.703 563.227 497.284 563.227 497.914H561.719C561.719 497.227 561.5 496.688 561.062 496.297C560.625 495.901 560.008 495.703 559.211 495.703C558.471 495.703 557.893 495.867 557.477 496.195C557.065 496.518 556.859 496.969 556.859 497.547C556.859 498.01 557.055 498.404 557.445 498.727C557.841 499.044 558.51 499.336 559.453 499.602C560.401 499.867 561.141 500.161 561.672 500.484C562.208 500.802 562.604 501.174 562.859 501.602C563.12 502.029 563.25 502.531 563.25 503.109C563.25 504.031 562.891 504.771 562.172 505.328C561.453 505.88 560.492 506.156 559.289 506.156C558.508 506.156 557.779 506.008 557.102 505.711C556.424 505.409 555.901 504.997 555.531 504.477C555.167 503.956 554.984 503.365 554.984 502.703H556.492C556.492 503.391 556.745 503.935 557.25 504.336C557.76 504.732 558.44 504.93 559.289 504.93C560.081 504.93 560.688 504.768 561.109 504.445C561.531 504.122 561.742 503.682 561.742 503.125C561.742 502.568 561.547 502.138 561.156 501.836C560.766 501.529 560.057 501.227 559.031 500.93ZM569.148 506V494.625H572.359C573.349 494.625 574.224 494.844 574.984 495.281C575.745 495.719 576.331 496.341 576.742 497.148C577.159 497.956 577.37 498.883 577.375 499.93V500.656C577.375 501.729 577.167 502.669 576.75 503.477C576.339 504.284 575.747 504.904 574.977 505.336C574.211 505.768 573.318 505.99 572.297 506H569.148ZM570.648 495.859V504.773H572.227C573.383 504.773 574.281 504.414 574.922 503.695C575.568 502.977 575.891 501.953 575.891 500.625V499.961C575.891 498.669 575.586 497.667 574.977 496.953C574.372 496.234 573.513 495.87 572.398 495.859H570.648ZM584.641 506C584.557 505.833 584.49 505.536 584.438 505.109C583.766 505.807 582.964 506.156 582.031 506.156C581.198 506.156 580.513 505.922 579.977 505.453C579.445 504.979 579.18 504.38 579.18 503.656C579.18 502.776 579.513 502.094 580.18 501.609C580.852 501.12 581.794 500.875 583.008 500.875H584.414V500.211C584.414 499.706 584.263 499.305 583.961 499.008C583.659 498.706 583.214 498.555 582.625 498.555C582.109 498.555 581.677 498.685 581.328 498.945C580.979 499.206 580.805 499.521 580.805 499.891H579.352C579.352 499.469 579.5 499.062 579.797 498.672C580.099 498.276 580.505 497.964 581.016 497.734C581.531 497.505 582.096 497.391 582.711 497.391C583.685 497.391 584.448 497.635 585 498.125C585.552 498.609 585.839 499.279 585.859 500.133V504.023C585.859 504.799 585.958 505.417 586.156 505.875V506H584.641ZM582.242 504.898C582.695 504.898 583.125 504.781 583.531 504.547C583.938 504.312 584.232 504.008 584.414 503.633V501.898H583.281C581.51 501.898 580.625 502.417 580.625 503.453C580.625 503.906 580.776 504.26 581.078 504.516C581.38 504.771 581.768 504.898 582.242 504.898ZM590.086 495.5V497.547H591.664V498.664H590.086V503.906C590.086 504.245 590.156 504.5 590.297 504.672C590.438 504.839 590.677 504.922 591.016 504.922C591.182 504.922 591.411 504.891 591.703 504.828V506C591.323 506.104 590.953 506.156 590.594 506.156C589.948 506.156 589.461 505.961 589.133 505.57C588.805 505.18 588.641 504.625 588.641 503.906V498.664H587.102V497.547H588.641V495.5H590.086ZM598.578 506C598.495 505.833 598.427 505.536 598.375 505.109C597.703 505.807 596.901 506.156 595.969 506.156C595.135 506.156 594.451 505.922 593.914 505.453C593.383 504.979 593.117 504.38 593.117 503.656C593.117 502.776 593.451 502.094 594.117 501.609C594.789 501.12 595.732 500.875 596.945 500.875H598.352V500.211C598.352 499.706 598.201 499.305 597.898 499.008C597.596 498.706 597.151 498.555 596.562 498.555C596.047 498.555 595.615 498.685 595.266 498.945C594.917 499.206 594.742 499.521 594.742 499.891H593.289C593.289 499.469 593.438 499.062 593.734 498.672C594.036 498.276 594.443 497.964 594.953 497.734C595.469 497.505 596.034 497.391 596.648 497.391C597.622 497.391 598.385 497.635 598.938 498.125C599.49 498.609 599.776 499.279 599.797 500.133V504.023C599.797 504.799 599.896 505.417 600.094 505.875V506H598.578ZM596.18 504.898C596.633 504.898 597.062 504.781 597.469 504.547C597.875 504.312 598.169 504.008 598.352 503.633V501.898H597.219C595.448 501.898 594.562 502.417 594.562 503.453C594.562 503.906 594.714 504.26 595.016 504.516C595.318 504.771 595.706 504.898 596.18 504.898ZM609.219 501.867C609.219 503.159 608.922 504.198 608.328 504.984C607.734 505.766 606.938 506.156 605.938 506.156C604.87 506.156 604.044 505.779 603.461 505.023L603.391 506H602.062V494H603.508V498.477C604.091 497.753 604.896 497.391 605.922 497.391C606.948 497.391 607.753 497.779 608.336 498.555C608.924 499.331 609.219 500.393 609.219 501.742V501.867ZM607.773 501.703C607.773 500.719 607.583 499.958 607.203 499.422C606.823 498.885 606.276 498.617 605.562 498.617C604.609 498.617 603.924 499.06 603.508 499.945V503.602C603.951 504.487 604.641 504.93 605.578 504.93C606.271 504.93 606.81 504.661 607.195 504.125C607.581 503.589 607.773 502.781 607.773 501.703ZM616.266 506C616.182 505.833 616.115 505.536 616.062 505.109C615.391 505.807 614.589 506.156 613.656 506.156C612.823 506.156 612.138 505.922 611.602 505.453C611.07 504.979 610.805 504.38 610.805 503.656C610.805 502.776 611.138 502.094 611.805 501.609C612.477 501.12 613.419 500.875 614.633 500.875H616.039V500.211C616.039 499.706 615.888 499.305 615.586 499.008C615.284 498.706 614.839 498.555 614.25 498.555C613.734 498.555 613.302 498.685 612.953 498.945C612.604 499.206 612.43 499.521 612.43 499.891H610.977C610.977 499.469 611.125 499.062 611.422 498.672C611.724 498.276 612.13 497.964 612.641 497.734C613.156 497.505 613.721 497.391 614.336 497.391C615.31 497.391 616.073 497.635 616.625 498.125C617.177 498.609 617.464 499.279 617.484 500.133V504.023C617.484 504.799 617.583 505.417 617.781 505.875V506H616.266ZM613.867 504.898C614.32 504.898 614.75 504.781 615.156 504.547C615.562 504.312 615.857 504.008 616.039 503.633V501.898H614.906C613.135 501.898 612.25 502.417 612.25 503.453C612.25 503.906 612.401 504.26 612.703 504.516C613.005 504.771 613.393 504.898 613.867 504.898ZM624.672 503.758C624.672 503.367 624.523 503.065 624.227 502.852C623.935 502.633 623.422 502.445 622.688 502.289C621.958 502.133 621.378 501.945 620.945 501.727C620.518 501.508 620.201 501.247 619.992 500.945C619.789 500.643 619.688 500.284 619.688 499.867C619.688 499.174 619.979 498.589 620.562 498.109C621.151 497.63 621.901 497.391 622.812 497.391C623.771 497.391 624.547 497.638 625.141 498.133C625.74 498.628 626.039 499.26 626.039 500.031H624.586C624.586 499.635 624.417 499.294 624.078 499.008C623.745 498.721 623.323 498.578 622.812 498.578C622.286 498.578 621.875 498.693 621.578 498.922C621.281 499.151 621.133 499.451 621.133 499.82C621.133 500.169 621.271 500.432 621.547 500.609C621.823 500.786 622.32 500.956 623.039 501.117C623.763 501.279 624.349 501.471 624.797 501.695C625.245 501.919 625.576 502.19 625.789 502.508C626.008 502.82 626.117 503.203 626.117 503.656C626.117 504.411 625.815 505.018 625.211 505.477C624.607 505.93 623.823 506.156 622.859 506.156C622.182 506.156 621.583 506.036 621.062 505.797C620.542 505.557 620.133 505.224 619.836 504.797C619.544 504.365 619.398 503.898 619.398 503.398H620.844C620.87 503.883 621.062 504.268 621.422 504.555C621.786 504.836 622.266 504.977 622.859 504.977C623.406 504.977 623.844 504.867 624.172 504.648C624.505 504.424 624.672 504.128 624.672 503.758ZM631.508 506.156C630.362 506.156 629.43 505.781 628.711 505.031C627.992 504.276 627.633 503.268 627.633 502.008V501.742C627.633 500.904 627.792 500.156 628.109 499.5C628.432 498.839 628.88 498.323 629.453 497.953C630.031 497.578 630.656 497.391 631.328 497.391C632.427 497.391 633.281 497.753 633.891 498.477C634.5 499.201 634.805 500.237 634.805 501.586V502.188H629.078C629.099 503.021 629.341 503.695 629.805 504.211C630.273 504.721 630.867 504.977 631.586 504.977C632.096 504.977 632.529 504.872 632.883 504.664C633.237 504.456 633.547 504.18 633.812 503.836L634.695 504.523C633.987 505.612 632.924 506.156 631.508 506.156ZM631.328 498.578C630.745 498.578 630.255 498.792 629.859 499.219C629.464 499.641 629.219 500.234 629.125 501H633.359V500.891C633.318 500.156 633.12 499.589 632.766 499.188C632.411 498.781 631.932 498.578 631.328 498.578Z" fill="black"/>
<path d="M392 301C382.704 301 373.617 298.244 365.888 293.079C358.159 287.915 352.135 280.574 348.578 271.986C345.02 263.398 344.09 253.948 345.903 244.831C347.717 235.714 352.193 227.339 358.766 220.766C365.339 214.193 373.714 209.717 382.831 207.903C391.948 206.09 401.398 207.02 409.986 210.578C418.574 214.135 425.915 220.159 431.079 227.888C436.244 235.617 439 244.704 439 254C438.989 266.462 434.034 278.41 425.222 287.222C416.41 296.034 404.462 300.989 392 301V301ZM392 211C383.495 211 375.182 213.522 368.11 218.247C361.039 222.972 355.528 229.687 352.273 237.545C349.019 245.402 348.167 254.048 349.826 262.389C351.485 270.73 355.581 278.392 361.594 284.406C367.608 290.419 375.27 294.515 383.611 296.174C391.952 297.833 400.598 296.981 408.455 293.727C416.313 290.472 423.028 284.961 427.753 277.89C432.478 270.818 435 262.505 435 254C434.989 242.599 430.456 231.668 422.394 223.606C414.332 215.544 403.401 211.011 392 211V211Z" fill="#693CC5"/>
<path d="M397.62 280.38H381.14V276.38H395.62V235.38H381.14V231.38H397.62C398.15 231.38 398.659 231.591 399.034 231.966C399.409 232.341 399.62 232.85 399.62 233.38V278.38C399.62 278.643 399.568 278.903 399.468 279.145C399.367 279.388 399.22 279.608 399.034 279.794C398.848 279.98 398.628 280.127 398.385 280.228C398.143 280.328 397.883 280.38 397.62 280.38Z" fill="#693CC5"/>
<path d="M416.36 253.88H380.74V257.88H416.36V253.88Z" fill="#693CC5"/>
<path d="M367.62 242.88C367.322 242.878 367.028 242.81 366.76 242.68C366.42 242.518 366.132 242.263 365.93 241.944C365.729 241.626 365.621 241.257 365.62 240.88V225.88C365.621 225.503 365.729 225.134 365.93 224.815C366.132 224.497 366.42 224.242 366.76 224.08C367.1 223.916 367.48 223.851 367.855 223.894C368.23 223.936 368.585 224.084 368.88 224.32L378.24 231.82C378.476 232.006 378.666 232.243 378.798 232.513C378.93 232.783 378.999 233.08 379 233.38C378.999 233.68 378.93 233.977 378.798 234.247C378.666 234.517 378.476 234.754 378.24 234.94L368.88 242.44C368.523 242.727 368.078 242.882 367.62 242.88V242.88ZM369.62 230.04V236.72L373.8 233.38L369.62 230.04Z" fill="#693CC5"/>
<path d="M367.62 265.38C367.322 265.378 367.028 265.31 366.76 265.18C366.42 265.018 366.132 264.763 365.93 264.444C365.729 264.126 365.621 263.757 365.62 263.38V248.38C365.621 248.003 365.729 247.634 365.93 247.315C366.132 246.997 366.42 246.742 366.76 246.58C367.1 246.416 367.48 246.351 367.855 246.394C368.23 246.436 368.585 246.584 368.88 246.82L378.24 254.32C378.476 254.506 378.666 254.743 378.798 255.013C378.93 255.283 378.999 255.58 379 255.88C378.999 256.18 378.93 256.477 378.798 256.747C378.666 257.017 378.476 257.254 378.24 257.44L368.88 264.94C368.523 265.227 368.078 265.382 367.62 265.38V265.38ZM369.62 252.54V259.22L373.8 255.88L369.62 252.54Z" fill="#693CC5"/>
<path d="M418.24 267.24C417.98 267.24 417.723 267.193 417.48 267.1C417.112 266.949 416.797 266.691 416.576 266.359C416.355 266.028 416.238 265.638 416.24 265.24V246.5C416.238 246.103 416.354 245.714 416.573 245.383C416.793 245.052 417.106 244.794 417.473 244.641C417.84 244.489 418.244 244.449 418.633 244.527C419.023 244.606 419.38 244.798 419.66 245.08L429.04 254.46C429.413 254.835 429.622 255.342 429.622 255.87C429.622 256.398 429.413 256.905 429.04 257.28L419.66 266.66C419.473 266.845 419.251 266.992 419.008 267.092C418.764 267.191 418.503 267.241 418.24 267.24ZM420.24 251.24V260.34L424.8 255.8L420.24 251.24Z" fill="#693CC5"/>
<path d="M367.62 286C367.322 285.998 367.028 285.93 366.76 285.8C366.42 285.638 366.132 285.383 365.93 285.064C365.729 284.746 365.621 284.377 365.62 284V269C365.619 268.622 365.725 268.25 365.926 267.93C366.127 267.609 366.415 267.352 366.757 267.189C367.098 267.026 367.479 266.963 367.855 267.007C368.23 267.051 368.586 267.202 368.88 267.44L378.24 274.94C378.474 275.127 378.662 275.365 378.792 275.635C378.921 275.905 378.988 276.201 378.988 276.5C378.988 276.799 378.921 277.095 378.792 277.365C378.662 277.635 378.474 277.873 378.24 278.06L368.88 285.56C368.523 285.847 368.078 286.002 367.62 286ZM369.62 273.16V279.84L373.8 276.5L369.62 273.16Z" fill="#693CC5"/>
<path d="M749.34 466.76H734.52C733.99 466.76 733.481 466.549 733.106 466.174C732.731 465.799 732.52 465.29 732.52 464.76V449.76C732.52 449.229 732.731 448.721 733.106 448.346C733.481 447.971 733.99 447.76 734.52 447.76H749.34C749.87 447.76 750.379 447.971 750.754 448.346C751.129 448.721 751.34 449.229 751.34 449.76V464.76C751.34 465.29 751.129 465.799 750.754 466.174C750.379 466.549 749.87 466.76 749.34 466.76ZM736.52 462.76H747.34V451.76H736.52V462.76Z" fill="#3F8624"/>
<path d="M769 459.34C766.926 459.348 764.895 458.74 763.167 457.593C761.438 456.446 760.089 454.813 759.289 452.898C758.49 450.984 758.277 448.876 758.677 446.84C759.076 444.804 760.071 442.933 761.535 441.464C762.999 439.994 764.867 438.992 766.901 438.584C768.935 438.177 771.044 438.382 772.961 439.174C774.879 439.966 776.518 441.309 777.671 443.033C778.824 444.758 779.44 446.785 779.44 448.86C779.443 450.234 779.175 451.594 778.651 452.864C778.128 454.134 777.36 455.289 776.39 456.262C775.421 457.235 774.269 458.008 773.001 458.536C771.733 459.064 770.374 459.337 769 459.34V459.34ZM769 442.38C767.717 442.372 766.46 442.745 765.389 443.453C764.318 444.16 763.481 445.169 762.985 446.352C762.488 447.536 762.354 448.84 762.6 450.099C762.845 451.359 763.459 452.517 764.364 453.428C765.268 454.338 766.423 454.959 767.681 455.212C768.939 455.466 770.244 455.34 771.43 454.85C772.617 454.361 773.631 453.531 774.345 452.464C775.059 451.398 775.44 450.143 775.44 448.86C775.443 448.012 775.278 447.171 774.956 446.386C774.634 445.602 774.16 444.888 773.562 444.286C772.964 443.684 772.253 443.206 771.471 442.879C770.688 442.552 769.848 442.383 769 442.38V442.38Z" fill="#3F8624"/>
<path d="M747.44 440.5H728.7C728.346 440.499 727.998 440.405 727.692 440.225C727.386 440.046 727.134 439.789 726.96 439.48C726.784 439.176 726.692 438.831 726.692 438.48C726.692 438.129 726.784 437.784 726.96 437.48L736.34 421.84C736.518 421.546 736.769 421.303 737.069 421.135C737.368 420.966 737.706 420.877 738.05 420.877C738.394 420.877 738.732 420.966 739.031 421.135C739.331 421.303 739.582 421.546 739.76 421.84L749.14 437.48C749.316 437.784 749.408 438.129 749.408 438.48C749.408 438.831 749.316 439.176 749.14 439.48C748.97 439.783 748.723 440.037 748.425 440.216C748.127 440.394 747.788 440.492 747.44 440.5V440.5ZM732.22 436.5H743.92L738.08 426.76L732.22 436.5Z" fill="#3F8624"/>
<path d="M754.34 478C741.56 478 721.34 475.1 721.08 467.32L712.02 400.1C711.917 399.57 712.028 399.02 712.33 398.572C712.632 398.123 713.1 397.813 713.63 397.71C714.16 397.607 714.71 397.718 715.158 398.02C715.607 398.322 715.917 398.79 716.02 399.32C717.02 403.18 732.12 408.58 754.42 408.58C776.72 408.58 791.8 403.18 792.8 399.32C792.903 398.79 793.213 398.322 793.662 398.02C794.11 397.718 794.66 397.607 795.19 397.71C795.72 397.813 796.188 398.123 796.49 398.572C796.792 399.02 796.903 399.57 796.8 400.1L787.58 467.32C787.58 469.96 785.14 472.22 780.56 474.04C778.527 474.814 776.442 475.443 774.32 475.92C767.756 477.341 761.056 478.038 754.34 478V478ZM716.8 405.54L725 467C725 467 725 467.18 725 467.26C725 469.62 736.38 474.1 754.26 474.1C760.674 474.135 767.073 473.464 773.34 472.1C775.266 471.641 777.158 471.046 779 470.32C782.7 468.86 783.52 467.54 783.52 467.16V467L791.8 405.64C784.08 410.24 768.52 412.68 754.26 412.68C740 412.68 724.5 410.14 716.8 405.54Z" fill="#3F8624"/>
<path d="M754.34 412.58C735.4 412.58 714.14 408.28 712.06 400.34C712.06 400.24 712.06 400.16 712.06 400.08V399.26C712.051 399.174 712.051 399.086 712.06 399C712.06 390.16 734.42 384 754.5 384C774.58 384 796.76 390.16 796.76 399V399.26L796.64 400.08C796.648 400.166 796.648 400.254 796.64 400.34C794.52 408.28 773.26 412.58 754.34 412.58ZM715.96 399.42C717.2 403.28 732.24 408.58 754.34 408.58C776.44 408.58 791.46 403.28 792.7 399.42V398.88C792.5 395 776.72 388 754.34 388C731.96 388 716.18 395 715.9 398.88L715.96 399.42Z" fill="#3F8624"/>
<path d="M796.86 440.24C787.34 440.24 766.5 430.82 753.46 424.42L755.22 420.82C773.22 429.66 794.42 437.86 798.04 436.32C797.76 435.74 796.42 433.94 790.04 430.48L789.72 430.28L791.72 426.8L792.02 426.98C798.44 430.52 801.5 433.24 802.02 435.8C802.122 436.334 802.104 436.885 801.965 437.411C801.827 437.937 801.572 438.425 801.22 438.84C800.635 439.371 799.943 439.77 799.191 440.012C798.439 440.253 797.645 440.331 796.86 440.24V440.24Z" fill="#3F8624"/>
<path d="M754.34 427C753.482 427 752.643 426.745 751.929 426.269C751.215 425.792 750.659 425.114 750.33 424.321C750.002 423.528 749.916 422.655 750.083 421.813C750.251 420.971 750.664 420.198 751.271 419.591C751.878 418.984 752.651 418.571 753.493 418.403C754.335 418.236 755.208 418.322 756.001 418.65C756.794 418.979 757.472 419.535 757.949 420.249C758.425 420.962 758.68 421.802 758.68 422.66C758.675 423.809 758.216 424.91 757.403 425.723C756.59 426.536 755.489 426.995 754.34 427V427ZM754.34 422.32C754.294 422.317 754.247 422.324 754.204 422.34C754.16 422.356 754.12 422.38 754.087 422.412C754.053 422.444 754.026 422.482 754.008 422.525C753.989 422.568 753.98 422.614 753.98 422.66C753.98 423.04 754.68 423.04 754.68 422.66C754.686 422.612 754.681 422.564 754.667 422.518C754.652 422.472 754.628 422.429 754.596 422.393C754.564 422.357 754.524 422.329 754.48 422.309C754.436 422.29 754.388 422.28 754.34 422.28V422.32Z" fill="#3F8624"/>
<path d="M635 385H535V485H635V385Z" fill="url(#paint0_linear)"/>
<path d="M604.2 408.333C603.8 403.133 594.107 400.333 584.96 400.333C575.813 400.333 566.107 403.133 565.667 408.333V448.333C565.667 453.733 575.627 456.653 585 456.653C594.373 456.653 604.333 453.747 604.333 448.347V408.347L604.2 408.333ZM584.96 403C595.253 403 601.573 406.293 601.573 408.667C601.573 411.04 595.253 414.333 584.96 414.333C574.667 414.333 568.333 411.027 568.333 408.667C568.333 406.307 574.653 403 584.96 403ZM584.96 454C574.653 454 568.333 450.707 568.333 448.347V440.653C571.893 443.32 578.613 444.653 585.04 444.653C591.467 444.653 598.08 443.32 601.667 440.653V448.293C601.573 450.707 595.253 454 584.96 454ZM585.04 442C574.747 442 568.427 438.693 568.427 436.333H568.333V427.32C571.893 429.987 578.613 431.32 585.04 431.32C591.467 431.32 598.08 429.987 601.667 427.32V436.333C601.667 438.693 595.347 442 585.04 442ZM585.04 428.667C574.747 428.667 568.427 425.36 568.427 423H568.333V413C571.92 415.587 578.573 417 584.96 417C591.347 417 598.107 415.667 601.667 413V423C601.667 425.36 595.347 428.667 585.04 428.667Z" fill="white"/>
<path d="M569.667 459H567V467H569.667V459Z" fill="white"/>
<path d="M603 459H600.333V467H603V459Z" fill="white"/>
<path d="M580.333 461.667H577.667V469.667H580.333V461.667Z" fill="white"/>
<path d="M592.333 461.667H589.667V469.667H592.333V461.667Z" fill="white"/>
<g filter="url(#filter0_d)">
<path d="M249 621H590V528" stroke="black" stroke-dasharray="10 10"/>
</g>
<g filter="url(#filter1_d)">
<path d="M249 625H753V524" stroke="black" stroke-dasharray="10 10"/>
</g>
<path d="M184 517V560" stroke="black" stroke-dasharray="10 10"/>
<path d="M184 341V371" stroke="black" stroke-dasharray="10 10"/>
<path d="M184 114V196" stroke="black" stroke-dasharray="10 10"/>
<path d="M509 254H442" stroke="black" stroke-dasharray="10 10"/>
<path d="M330 254H249" stroke="black" stroke-dasharray="10 10"/>
<path d="M186 303C176.704 303 167.617 300.244 159.888 295.079C152.159 289.915 146.135 282.574 142.578 273.986C139.02 265.398 138.09 255.948 139.903 246.831C141.717 237.714 146.193 229.339 152.766 222.766C159.339 216.193 167.714 211.717 176.831 209.903C185.948 208.09 195.398 209.02 203.986 212.578C212.574 216.135 219.915 222.159 225.079 229.888C230.244 237.617 233 246.704 233 256C232.989 268.462 228.034 280.41 219.222 289.222C210.41 298.034 198.462 302.989 186 303V303ZM186 213C177.495 213 169.182 215.522 162.111 220.247C155.039 224.972 149.528 231.687 146.273 239.545C143.019 247.402 142.167 256.048 143.826 264.389C145.485 272.73 149.581 280.392 155.594 286.406C161.608 292.419 169.27 296.515 177.611 298.174C185.952 299.833 194.598 298.981 202.455 295.727C210.313 292.472 217.028 286.961 221.753 279.89C226.478 272.818 229 264.505 229 256C228.989 244.599 224.456 233.668 216.394 225.606C208.332 217.544 197.401 213.011 186 213V213Z" fill="#693CC5"/>
<path d="M208.5 284.24H200.98C200.45 284.24 199.941 284.029 199.566 283.654C199.191 283.279 198.98 282.77 198.98 282.24V243.44C195.108 241.449 190.833 240.368 186.48 240.28C181.742 240.369 177.096 241.604 172.94 243.88V282.24C172.94 282.77 172.729 283.279 172.354 283.654C171.979 284.029 171.47 284.24 170.94 284.24H163.5C162.97 284.24 162.461 284.029 162.086 283.654C161.711 283.279 161.5 282.77 161.5 282.24V238.6C161.5 238.316 161.561 238.035 161.678 237.777C161.796 237.518 161.967 237.287 162.18 237.1C169.027 231.499 177.656 228.54 186.5 228.76C194.852 228.612 203.019 231.22 209.74 236.18C209.978 236.368 210.171 236.608 210.302 236.882C210.434 237.156 210.502 237.456 210.5 237.76V282.24C210.5 282.77 210.289 283.279 209.914 283.654C209.539 284.029 209.03 284.24 208.5 284.24ZM202.98 280.24H206.5V238.74C200.617 234.714 193.628 232.617 186.5 232.74C178.937 232.555 171.535 234.937 165.5 239.5V280.24H168.94V242.64C168.937 242.267 169.039 241.901 169.233 241.583C169.428 241.265 169.707 241.008 170.04 240.84C175.062 237.991 180.708 236.425 186.48 236.28C191.768 236.426 196.95 237.795 201.62 240.28H201.82C202.167 240.441 202.461 240.697 202.667 241.02C202.872 241.343 202.981 241.717 202.98 242.1V280.24Z" fill="#693CC5"/>
<defs>
<filter id="filter0_d" x="245" y="528" width="349.5" height="101.5" filterUnits="userSpaceOnUse" color-interpolation-filters="sRGB">
<feFlood flood-opacity="0" result="BackgroundImageFix"/>
<feColorMatrix in="SourceAlpha" type="matrix" values="0 0 0 0 0 0 0 0 0 0 0 0 0 0 0 0 0 0 127 0"/>
<feOffset dy="4"/>
<feGaussianBlur stdDeviation="2"/>
<feColorMatrix type="matrix" values="0 0 0 0 0 0 0 0 0 0 0 0 0 0 0 0 0 0 0.25 0"/>
<feBlend mode="normal" in2="BackgroundImageFix" result="effect1_dropShadow"/>
<feBlend mode="normal" in="SourceGraphic" in2="effect1_dropShadow" result="shape"/>
</filter>
<filter id="filter1_d" x="245" y="524" width="512.5" height="109.5" filterUnits="userSpaceOnUse" color-interpolation-filters="sRGB">
<feFlood flood-opacity="0" result="BackgroundImageFix"/>
<feColorMatrix in="SourceAlpha" type="matrix" values="0 0 0 0 0 0 0 0 0 0 0 0 0 0 0 0 0 0 127 0"/>
<feOffset dy="4"/>
<feGaussianBlur stdDeviation="2"/>
<feColorMatrix type="matrix" values="0 0 0 0 0 0 0 0 0 0 0 0 0 0 0 0 0 0 0.25 0"/>
<feBlend mode="normal" in2="BackgroundImageFix" result="effect1_dropShadow"/>
<feBlend mode="normal" in="SourceGraphic" in2="effect1_dropShadow" result="shape"/>
</filter>
<linearGradient id="paint0_linear" x1="514.293" y1="505.707" x2="655.707" y2="364.293" gradientUnits="userSpaceOnUse">
<stop stop-color="#2E27AD"/>
<stop offset="1" stop-color="#527FFF"/>
</linearGradient>
</defs>
</svg>
